<svg width="27" height="27" viewBox="0 0 27 27" fill="none" xmlns="http://www.w3.org/2000/svg">
<g clip-path="url(#clip0)">
<path d="M17.5757 2.2855C16.438 1.05725 14.8491 0.380859 13.0952 0.380859C11.3321 0.380859 9.73784 1.05316 8.60545 2.27381C7.46079 3.50791 6.90307 5.18515 7.03402 6.99625C7.29359 10.5694 10.0126 13.476 13.0952 13.476C16.1779 13.476 18.8922 10.5699 19.1559 6.99742C19.2886 5.20268 18.7274 3.52896 17.5757 2.2855Z" fill="#000"/>
<path d="M23.3845 26.5711H2.80626C2.53691 26.5746 2.27017 26.518 2.02544 26.4055C1.78071 26.2929 1.56415 26.1272 1.39151 25.9204C1.01151 25.4662 0.858347 24.8459 0.971761 24.2187C1.46517 21.4815 3.00503 19.1823 5.42531 17.5682C7.5755 16.1353 10.2992 15.3467 13.0954 15.3467C15.8916 15.3467 18.6153 16.1359 20.7654 17.5682C23.1857 19.1817 24.7256 21.4809 25.219 24.2181C25.3324 24.8453 25.1792 25.4656 24.7992 25.9199C24.6267 26.1267 24.4101 26.2925 24.1654 26.4052C23.9207 26.5179 23.6539 26.5745 23.3845 26.5711Z" fill="#000"/>
</g>
</svg>
