<svg width="24" height="24" viewBox="0 0 24 24" fill="none" xmlns="http://www.w3.org/2000/svg">
<path d="M12 2.18177C17.4 2.18177 21.8181 6.59996 21.8181 12C21.8181 17.4 17.4 21.8181 12 21.8181C6.59996 21.8181 2.18177 17.4 2.18177 12C2.18177 6.59996 6.59996 2.18177 12 2.18177ZM12 0.54541C5.69996 0.54541 0.54541 5.69996 0.54541 12C0.54541 18.3 5.69996 23.4545 12 23.4545C18.3 23.4545 23.4545 18.3 23.4545 12C23.4545 5.69996 18.3 0.54541 12 0.54541Z" fill="#8A8A8A"/>
<path d="M18.5455 11.1819H12.8182V5.45459H11.1819V11.1819H5.45459V12.8182H11.1819V18.5455H12.8182V12.8182H18.5455V11.1819Z" fill="#8A8A8A"/>
</svg>
