<svg width="5" height="9" viewBox="0 0 5 9" fill="none" xmlns="http://www.w3.org/2000/svg">
<path d="M0.618845 7.2932L3.32028 4.59177L0.618845 1.89035C0.554386 1.82589 0.503254 1.74936 0.468368 1.66514C0.433483 1.58092 0.415527 1.49065 0.415527 1.39949C0.415527 1.30833 0.433483 1.21807 0.468368 1.13385C0.503254 1.04962 0.554386 0.9731 0.618845 0.90864C0.683305 0.844181 0.75983 0.793048 0.84405 0.758163C0.928271 0.723278 1.01854 0.705322 1.1097 0.705322C1.20086 0.705322 1.29112 0.723278 1.37535 0.758163C1.45957 0.793048 1.53609 0.844181 1.60055 0.90864L4.79631 4.1044C5.06785 4.37594 5.06785 4.81457 4.79631 5.08611L1.60055 8.28187C1.53614 8.34642 1.45963 8.39762 1.3754 8.43256C1.29117 8.4675 1.20088 8.48548 1.1097 8.48548C1.01851 8.48548 0.928221 8.4675 0.843994 8.43256C0.759767 8.39762 0.683257 8.34642 0.618845 8.28187C0.354272 8.01034 0.34731 7.56474 0.618845 7.2932Z" fill="white"/>
</svg>
