<svg width="42" height="56" viewBox="0 0 42 56" fill="none" xmlns="http://www.w3.org/2000/svg">
<path d="M35.5295 6.20723C32.6513 3.27603 28.9646 1.26558 24.9384 0.431601C20.9122 -0.402374 16.7284 -0.022174 12.9193 1.52384C9.1102 3.06985 5.8479 5.71179 3.54741 9.1136C1.24691 12.5154 0.0121991 16.5233 0.000329043 20.6275C-0.00849694 22.1963 0.160259 23.761 0.503389 25.2919C0.860071 26.873 1.45449 28.391 2.26645 29.7945L15.386 52.4737V45.0664C15.371 44.3547 15.4986 43.6471 15.7612 42.9851C16.0237 42.3232 16.4161 41.7202 16.9151 41.2115C17.4142 40.7029 18.01 40.2988 18.6675 40.0229C19.3251 39.747 20.0312 39.6049 20.7445 39.6049C21.4578 39.6049 22.1639 39.747 22.8215 40.0229C23.479 40.2988 24.0748 40.7029 24.5738 41.2115C25.0729 41.7202 25.4652 42.3232 25.7278 42.9851C25.9904 43.6471 26.1179 44.3547 26.103 45.0664V52.4737L39.2225 29.7945C40.0348 28.3903 40.6293 26.8715 40.9856 25.2896C41.3203 23.7962 41.4891 22.2705 41.4886 20.7401C41.5043 15.3002 39.3619 10.0753 35.5295 6.20723ZM21.2558 26.0099H20.2497C18.1586 26.0099 16.1532 26.839 14.6745 28.3148C13.1959 29.7906 12.3653 31.7922 12.3653 33.8793V40.4818L5.20488 28.1051C4.56385 26.9972 4.09464 25.7987 3.81324 24.5505C3.52595 23.2683 3.38479 21.9578 3.39246 20.6439C3.39615 18.3748 3.8481 16.1287 4.72244 14.0342C5.59678 11.9396 6.87635 10.0377 8.48793 8.4372C10.0995 6.83674 12.0115 5.56917 14.1144 4.70703C16.2173 3.84488 18.4699 3.40508 20.7433 3.4128H21.023C30.4425 3.55827 38.1059 11.3292 38.1059 20.7354C38.1065 22.0171 37.9654 23.295 37.6851 24.5458C37.4037 25.794 36.9345 26.9925 36.2935 28.1004L29.1331 40.4771V33.8793C29.1331 32.8457 28.9291 31.8222 28.5327 30.8673C28.1364 29.9124 27.5554 29.0448 26.823 28.314C26.0906 27.5832 25.2212 27.0036 24.2643 26.6082C23.3075 26.2129 22.282 26.0096 21.2464 26.0099H21.2558Z" fill="#000"/>
<path d="M20.7455 13.8582C19.6209 13.8582 18.5214 14.191 17.5863 14.8147C16.6512 15.4383 15.9223 16.3247 15.4919 17.3618C15.0615 18.3989 14.9489 19.5401 15.1683 20.6411C15.3878 21.7421 15.9293 22.7534 16.7246 23.5471C17.5199 24.3409 18.5331 24.8814 19.6362 25.1004C20.7392 25.3194 21.8826 25.207 22.9217 24.7775C23.9607 24.3479 24.8488 23.6204 25.4737 22.6871C26.0985 21.7537 26.432 20.6564 26.432 19.5338C26.432 18.0285 25.8329 16.5849 24.7665 15.5205C23.7001 14.4561 22.2537 13.8582 20.7455 13.8582ZM20.7455 22.3775C20.182 22.3775 19.6312 22.2107 19.1627 21.8983C18.6941 21.5858 18.329 21.1417 18.1133 20.6221C17.8977 20.1024 17.8412 19.5307 17.9512 18.979C18.0611 18.4274 18.3325 17.9207 18.7309 17.523C19.1294 17.1253 19.637 16.8545 20.1897 16.7448C20.7424 16.635 21.3152 16.6914 21.8358 16.9066C22.3565 17.1218 22.8014 17.4863 23.1145 17.954C23.4275 18.4216 23.5946 18.9714 23.5946 19.5338C23.5946 20.288 23.2945 21.0113 22.7602 21.5446C22.2259 22.0779 21.5012 22.3775 20.7455 22.3775Z" fill="#000"/>
<path d="M20.7455 41.8401C19.8888 41.8413 19.0677 42.1817 18.4621 42.7865C17.8566 43.3913 17.5162 44.2112 17.5156 45.0662V52.7456C17.5156 52.7456 17.5156 52.7668 17.5156 52.7761C17.5156 53.6311 17.8559 54.4511 18.4616 55.0557C19.0673 55.6603 19.8889 55.9999 20.7455 55.9999C21.6021 55.9999 22.4237 55.6603 23.0294 55.0557C23.6351 54.4511 23.9754 53.6311 23.9754 52.7761C23.9754 52.7761 23.9754 52.755 23.9754 52.7456V45.0662C23.9748 44.2112 23.6344 43.3913 23.0288 42.7865C22.4233 42.1817 21.6021 41.8413 20.7455 41.8401Z" fill="#000"/>
<path d="M14.072 17.7555H10.2074C9.76652 17.7574 9.34427 17.933 9.03255 18.2441C8.72083 18.5552 8.54489 18.9767 8.54303 19.4167C8.54489 19.8567 8.72083 20.2781 9.03255 20.5893C9.34427 20.9004 9.76652 21.076 10.2074 21.0779H14.0767C13.8074 19.9859 13.8074 18.8451 14.0767 17.7532L14.072 17.7555Z" fill="#000"/>
<path d="M32.9434 19.4192C32.9416 18.9792 32.7656 18.5578 32.4539 18.2466C32.1422 17.9355 31.7199 17.7599 31.2791 17.7581H27.4121C27.6814 18.85 27.6814 19.9908 27.4121 21.0827H31.2814C31.7223 21.0803 32.1443 20.9041 32.4556 20.5925C32.7668 20.2809 32.9422 19.8592 32.9434 19.4192Z" fill="#000"/>
</svg>
