<svg width="18" height="18" viewBox="0 0 18 18" fill="none" xmlns="http://www.w3.org/2000/svg">
<g clip-path="url(#clip0)">
<path d="M12.253 6.84194C12.5495 6.56558 12.5659 6.10118 12.2895 5.80467C12.0132 5.50815 11.5488 5.49182 11.2523 5.76817L9.10475 7.76972L7.10318 5.6222C6.82681 5.32569 6.36241 5.30935 6.0659 5.58571C5.76939 5.86206 5.75305 6.32646 6.0294 6.62298L8.03096 8.77049L5.88343 10.7721C5.58692 11.0484 5.57058 11.5128 5.84694 11.8093C6.12329 12.1058 6.58769 12.1222 6.88421 11.8458L9.03172 9.84428L11.0333 11.9918C11.3097 12.2883 11.7741 12.3047 12.0706 12.0283C12.3671 11.752 12.3834 11.2875 12.1071 10.991L10.1055 8.84352L12.253 6.84194Z" fill="black"/>
<path fill-rule="evenodd" clip-rule="evenodd" d="M0.995117 8.80696C0.995117 4.34833 4.60956 0.733887 9.06819 0.733887C13.5268 0.733887 17.1413 4.34833 17.1413 8.80696C17.1413 13.2656 13.5268 16.88 9.06819 16.88C4.60956 16.88 0.995117 13.2656 0.995117 8.80696ZM9.06819 15.4122C5.42022 15.4122 2.46295 12.455 2.46295 8.80696C2.46295 5.15899 5.42022 2.20172 9.06819 2.20172C12.7162 2.20172 15.6734 5.15899 15.6734 8.80696C15.6734 12.455 12.7162 15.4122 9.06819 15.4122Z" fill="black"/>
</g>
<defs>
<clipPath id="clip0">
<rect width="17.614" height="17.614" fill="white" transform="translate(0.26123)"/>
</clipPath>
</defs>
</svg>
