<svg width="18" height="14" viewBox="0 0 18 14" fill="none" xmlns="http://www.w3.org/2000/svg">
<path d="M15.1876 13.9999C15.1137 14.0001 15.0405 13.985 14.9723 13.9557C14.904 13.9263 14.8421 13.8833 14.79 13.8289L2.41495 0.995615C2.31392 0.885328 2.25842 0.738474 2.2603 0.586364C2.26218 0.434253 2.32128 0.28892 2.42501 0.181352C2.52873 0.0737848 2.66887 0.0124934 2.81555 0.0105459C2.96223 0.00859841 3.10384 0.066149 3.21019 0.170927L15.5852 13.0043C15.6638 13.0858 15.7173 13.1898 15.739 13.3029C15.7607 13.416 15.7496 13.5332 15.707 13.6398C15.6645 13.7464 15.5924 13.8374 15.4999 13.9015C15.4075 13.9656 15.2988 13.9999 15.1876 13.9999Z" fill="#979797"/>
<path d="M8.98802 11.6667C7.52938 11.6667 6.12278 11.219 4.80723 10.336C3.60946 9.53392 2.53122 8.38512 1.68887 7.01829V7.01538C2.38989 5.97376 3.1577 5.09293 3.98247 4.38272C3.98993 4.37625 3.99602 4.36825 4.00034 4.35922C4.00467 4.35019 4.00714 4.34032 4.0076 4.33025C4.00807 4.32017 4.00651 4.31011 4.00303 4.30069C3.99955 4.29128 3.99423 4.28271 3.98739 4.27553L3.28708 3.55038C3.27463 3.53737 3.25792 3.52969 3.24027 3.52888C3.22261 3.52807 3.20531 3.53418 3.1918 3.546C2.31571 4.31163 1.50255 5.25079 0.763211 6.35038C0.63601 6.53971 0.565956 6.76398 0.56195 6.99469C0.557943 7.22541 0.620166 7.45215 0.740711 7.64611C1.66919 9.15293 2.86415 10.422 4.19587 11.3156C5.69528 12.323 7.30895 12.8334 8.98802 12.8334C9.89433 12.8305 10.7942 12.6756 11.6529 12.3748C11.6642 12.3708 11.6743 12.3639 11.6824 12.3547C11.6904 12.3455 11.696 12.3343 11.6988 12.3222C11.7015 12.3101 11.7012 12.2975 11.6979 12.2856C11.6946 12.2737 11.6884 12.2628 11.6799 12.2541L10.9213 11.4673C10.9038 11.4496 10.8822 11.437 10.8586 11.4306C10.835 11.4242 10.8102 11.4243 10.7866 11.4308C10.1991 11.5877 9.59474 11.667 8.98802 11.6667Z" fill="#979797"/>
<path d="M17.2562 6.36571C16.326 4.87383 15.1191 3.60654 13.7662 2.70055C12.2696 1.69722 10.6173 1.16675 8.98816 1.16675C8.09146 1.1684 7.20141 1.32653 6.35531 1.63451C6.34404 1.63858 6.33395 1.64555 6.32599 1.65478C6.31804 1.66401 6.31248 1.67519 6.30984 1.68726C6.30721 1.69933 6.30758 1.7119 6.31092 1.72379C6.31426 1.73567 6.32046 1.74648 6.32894 1.75519L7.08656 2.54086C7.1042 2.55884 7.12609 2.57168 7.15004 2.57808C7.17399 2.58448 7.19915 2.58422 7.22297 2.57732C7.79846 2.41588 8.39198 2.33387 8.98816 2.33341C10.4187 2.33341 11.8211 2.78659 13.1559 3.68237C14.3762 4.49904 15.4671 5.64675 16.3116 7.00008C16.3122 7.00092 16.3125 7.00194 16.3125 7.003C16.3125 7.00406 16.3122 7.00508 16.3116 7.00592C15.6986 8.00667 14.9379 8.90143 14.0573 9.65753C14.0498 9.66397 14.0436 9.67198 14.0392 9.68103C14.0349 9.69008 14.0323 9.69998 14.0318 9.7101C14.0313 9.72022 14.0329 9.73034 14.0364 9.7398C14.0398 9.74927 14.0452 9.75788 14.0521 9.76508L14.7517 10.4902C14.7641 10.5032 14.7807 10.5109 14.7982 10.5118C14.8158 10.5126 14.8331 10.5066 14.8466 10.495C15.7867 9.67412 16.6004 8.70926 17.2597 7.63373C17.3763 7.4442 17.4379 7.22396 17.4373 6.99918C17.4366 6.7744 17.3738 6.55454 17.2562 6.36571Z" fill="#979797"/>
<path d="M8.99993 3.5C8.74713 3.49986 8.49512 3.52921 8.24864 3.5875C8.2362 3.59018 8.22468 3.59631 8.21532 3.60524C8.20597 3.61417 8.19912 3.62556 8.19552 3.63821C8.19191 3.65085 8.19168 3.66427 8.19484 3.67704C8.198 3.68981 8.20445 3.70146 8.21349 3.71073L12.1717 7.81448C12.1807 7.82385 12.1919 7.83054 12.2042 7.83382C12.2165 7.8371 12.2295 7.83686 12.2417 7.83312C12.2539 7.82938 12.2648 7.82228 12.2734 7.81258C12.2821 7.80287 12.288 7.79093 12.2906 7.77802C12.4033 7.26543 12.4031 6.7331 12.2902 6.22056C12.1773 5.70802 11.9546 5.22844 11.6384 4.81744C11.3223 4.40644 10.9209 4.07457 10.4641 3.8465C10.0074 3.61842 9.5069 3.49999 8.99993 3.5Z" fill="#979797"/>
<path d="M5.82818 6.18545C5.81924 6.17608 5.80801 6.1694 5.7957 6.16611C5.78338 6.16283 5.77044 6.16307 5.75825 6.16681C5.74606 6.17056 5.73507 6.17765 5.72646 6.18736C5.71785 6.19706 5.71194 6.209 5.70935 6.22191C5.58186 6.79954 5.59787 7.40128 5.75588 7.97073C5.9139 8.54019 6.20874 9.05872 6.61278 9.47773C7.01683 9.89674 7.51684 10.2025 8.06596 10.3664C8.61508 10.5302 9.19533 10.5468 9.75232 10.4146C9.76477 10.4119 9.77629 10.4058 9.78564 10.3969C9.795 10.3879 9.80184 10.3766 9.80545 10.3639C9.80906 10.3513 9.80929 10.3378 9.80613 10.3251C9.80296 10.3123 9.79652 10.3007 9.78748 10.2914L5.82818 6.18545Z" fill="#979797"/>
</svg>
