<svg width="24" height="16" viewBox="0 0 24 16" fill="none" xmlns="http://www.w3.org/2000/svg">
<path d="M0.905762 0H23.155V15.7599H0.905762V0Z" fill="#EC1C00"/>
<path d="M11.4946 4.19543C11.7938 3.3895 12.9337 3.3895 13.2328 4.19543L13.8252 5.79145C13.9553 6.14171 14.2828 6.37969 14.6561 6.39511L16.3571 6.46534C17.216 6.5008 17.5683 7.58493 16.8942 8.11848L15.5594 9.17511C15.2664 9.407 15.1413 9.79207 15.242 10.1519L15.7009 11.7913C15.9326 12.6191 15.0103 13.2892 14.2946 12.813L12.8772 11.87C12.5662 11.663 12.1613 11.663 11.8502 11.87L10.4328 12.813C9.71708 13.2892 8.79487 12.6191 9.02656 11.7913L9.4854 10.1519C9.58609 9.79207 9.46098 9.407 9.16804 9.17511L7.8332 8.11848C7.15916 7.58493 7.51141 6.5008 8.37034 6.46534L10.0713 6.39511C10.4446 6.37969 10.7722 6.14171 10.9022 5.79145L11.4946 4.19543Z" fill="#FFCB1F"/>
</svg>
