<svg width="70" height="70" viewBox="0 0 70 70" fill="none" xmlns="http://www.w3.org/2000/svg">
<circle opacity="0.8" cx="35" cy="35" r="35" fill="white" fill-opacity="0.696788"/>
<path d="M42.3892 51.6248C48.9043 48.7671 53.4707 42.5568 53.4707 34.9998C53.4707 27.4428 48.9043 21.2324 42.3892 18.3748V22.0692C46.7985 24.6295 49.7762 29.5449 49.7762 34.9998C49.7762 40.4546 46.7985 45.3701 42.3892 47.9304V51.6248Z" fill="#4B4B4B"/>
<path d="M42.389 25.764V44.2363C44.6518 42.2043 46.0834 38.2716 46.0834 35.0001C46.0834 31.7287 44.6518 27.796 42.389 25.764ZM20.2223 44.2363H25.2042L38.6945 53.2285V16.7717L25.2042 25.764H20.2223C18.1848 25.764 16.5278 27.421 16.5278 29.4585V40.5418C16.5278 42.5793 18.1848 44.2363 20.2223 44.2363Z" fill="#4B4B4B"/>
</svg>
