<svg width="19" height="19" viewBox="0 0 19 19" fill="none" xmlns="http://www.w3.org/2000/svg">
<path d="M18.1179 0.0505562C18.2343 0.000411187 18.3631 -0.0136393 18.4876 0.0102227C18.6121 0.0340847 18.7266 0.094761 18.8162 0.184401C18.9058 0.274041 18.9665 0.388518 18.9904 0.513022C19.0142 0.637526 19.0002 0.766326 18.9501 0.882756L11.3501 18.6161C11.2995 18.7342 11.2142 18.8341 11.1055 18.9025C10.9968 18.971 10.8698 19.0048 10.7415 18.9994C10.6131 18.9941 10.4894 18.9498 10.3868 18.8725C10.2842 18.7952 10.2076 18.6886 10.167 18.5667L7.73372 11.2669L0.433922 8.83489C0.311634 8.79456 0.204544 8.71792 0.126928 8.61517C0.0493126 8.51243 0.00485802 8.38847 -0.000507355 8.25981C-0.00587463 8.13116 0.0281029 8.00393 0.0968933 7.89508C0.165682 7.78623 0.266018 7.70093 0.384521 7.65056L18.1179 0.0505562Z" fill="white"/>
</svg>
