<svg width="12" height="16" viewBox="0 0 12 16" fill="none" xmlns="http://www.w3.org/2000/svg">
<path d="M7 12.9062V14H9C9.27083 14 9.50521 14.0964 9.70312 14.2891C9.90104 14.4818 10 14.7161 10 14.9922C10 15.2682 9.90365 15.5052 9.71094 15.7031C9.51823 15.901 9.28125 16 9 16H3C2.71875 16 2.48177 15.901 2.28906 15.7031C2.09635 15.5052 2 15.2682 2 14.9922C2 14.7161 2.09635 14.4818 2.28906 14.2891C2.48177 14.0964 2.71875 14 3 14H5V12.9062C3.57292 12.6667 2.38281 11.9922 1.42969 10.8828C0.476562 9.77344 0 8.47917 0 7C0 6.72917 0.0963542 6.49479 0.289062 6.29688C0.481771 6.09896 0.71875 6 1 6C1.28125 6 1.51823 6.09896 1.71094 6.29688C1.90365 6.49479 2 6.72917 2 7C2 8.10417 2.39062 9.04688 3.17188 9.82812C3.95312 10.6094 4.89583 11 6 11C7.10417 11 8.04688 10.6094 8.82812 9.82812C9.60938 9.04688 10 8.10417 10 7C10 6.72917 10.099 6.49479 10.2969 6.29688C10.4948 6.09896 10.7318 6 11.0078 6C11.2839 6 11.5182 6.09896 11.7109 6.29688C11.9036 6.49479 12 6.72917 12 7C12 8.47917 11.5234 9.77344 10.5703 10.8828C9.61719 11.9922 8.42708 12.6667 7 12.9062ZM6 10C5.16667 10 4.45833 9.70833 3.875 9.125C3.29167 8.54167 3 7.83333 3 7V3C3 2.16667 3.29167 1.45833 3.875 0.875C4.45833 0.291667 5.16667 0 6 0C6.83333 0 7.54167 0.291667 8.125 0.875C8.70833 1.45833 9 2.16667 9 3V7C9 7.83333 8.70833 8.54167 8.125 9.125C7.54167 9.70833 6.83333 10 6 10Z" fill="#9A9A9A"/>
</svg>
