<svg width="28" height="29" viewBox="0 0 28 29" fill="none" xmlns="http://www.w3.org/2000/svg">
<path d="M23.625 4.30957H0.875V21.8096H23.625V4.30957ZM21.875 20.0596H2.625V6.05957H21.875V20.0596Z" fill="#000" stroke="#000" stroke-width="0.564601"/>
<path d="M25.375 8.68457V23.5596H5.25V25.3096H27.125V8.68457H25.375Z" fill="#000" stroke="#000" stroke-width="0.564601"/>
<path d="M12.25 17.3502C14.4211 17.3502 16.1875 15.4286 16.1875 13.0667C16.1875 10.7048 14.4211 8.78329 12.25 8.78329C10.0789 8.78329 8.3125 10.7048 8.3125 13.0667C8.3125 15.4287 10.0789 17.3502 12.25 17.3502ZM12.25 10.5333C13.4562 10.5333 14.4375 11.6698 14.4375 13.0667C14.4375 14.4637 13.4562 15.6002 12.25 15.6002C11.0438 15.6002 10.0625 14.4637 10.0625 13.0667C10.0625 11.6698 11.0438 10.5333 12.25 10.5333Z" fill="#000" stroke="#000" stroke-width="0.564601"/>
<path d="M4.37506 8.24686H6.12506V17.8719H4.37506V8.24686Z" fill="#000" stroke="#000" stroke-width="0.564601"/>
<path d="M18.375 8.24686H20.125V17.8719H18.375V8.24686Z" fill="#000" stroke="#000" stroke-width="0.564601"/>
</svg>
