<svg width="71" height="70" viewBox="0 0 71 70" fill="none" xmlns="http://www.w3.org/2000/svg">
<circle cx="35.6656" cy="35" r="35" fill="url(#paint0_linear)"/>
<g clip-path="url(#clip0)">
<path d="M16.8025 40.7204L23.5115 40.6668C24.9468 40.6512 26.1425 40.3197 26.221 38.8104L26.4721 35.8786C26.4884 33.4444 27.8841 32.8862 29.7529 32.5428L42.0938 32.8737C43.5292 32.8581 44.4878 33.6737 44.4093 35.183L44.1586 39.3317C44.087 40.8443 45.2735 41.1591 46.7089 41.1435L53.6911 40.7794C55.1264 40.7638 55.9576 39.7365 56.036 38.2272C56.186 35.2054 55.5362 32.3385 53.7529 29.8325C51.5707 26.7749 47.0536 25.6574 45.1624 25.1707C43.2712 24.6839 39.6826 24.4101 35.8581 24.4391C32.0268 24.4648 28.9538 24.6202 27.0071 25.1465C25.0636 25.6659 19.9321 26.6921 17.4353 29.781C15.3942 32.316 14.5171 35.6791 14.3671 38.7009C14.2647 40.2073 15.3635 40.7258 16.8025 40.7204Z" fill="white"/>
</g>
<defs>
<linearGradient id="paint0_linear" x1="96.5747" y1="-19.5588" x2="-23.9412" y2="11.4621" gradientUnits="userSpaceOnUse">
<stop offset="0.163848" stop-color="#E35C5C"/>
<stop offset="0.456449" stop-color="#D20606"/>
<stop offset="0.775863" stop-color="#EA1919"/>
</linearGradient>
<clipPath id="clip0">
<rect width="39.1252" height="39.1252" fill="white" transform="translate(62.0789 26.0295) rotate(115.261)"/>
</clipPath>
</defs>
</svg>
