<svg width="20" height="20" viewBox="0 0 20 20" fill="none" xmlns="http://www.w3.org/2000/svg">
    <rect width="20" height="20" fill="#E5E5E5" />
    <g clip-path="url(#clip0)">
        <rect width="375" height="812" transform="translate(-331 -65)" fill="white" />
        <rect x="-331" y="-21" width="375" height="61" fill="white" />
        <g clip-path="url(#clip1)">
            <path
                d="M11 6.00012C11.7956 6.00012 12.5587 6.31619 13.1213 6.8788C13.6839 7.44141 14 8.20447 14 9.00012C14 9.26534 14.1054 9.51969 14.2929 9.70723C14.4804 9.89476 14.7348 10.0001 15 10.0001C15.2652 10.0001 15.5196 9.89476 15.7071 9.70723C15.8946 9.51969 16 9.26534 16 9.00012C16 7.67404 15.4732 6.40227 14.5355 5.46459C13.5979 4.52691 12.3261 4.00012 11 4.00012C10.7348 4.00012 10.4804 4.10548 10.2929 4.29302C10.1054 4.48055 10 4.73491 10 5.00012C10 5.26534 10.1054 5.51969 10.2929 5.70723C10.4804 5.89476 10.7348 6.00012 11 6.00012Z"
                fill="#FF7F22" />
            <path
                d="M11 2C12.8565 2 14.637 2.7375 15.9497 4.05025C17.2625 5.36301 18 7.14348 18 9C18 9.26521 18.1054 9.51957 18.2929 9.7071C18.4804 9.89464 18.7348 10 19 10C19.2652 10 19.5196 9.89464 19.7071 9.7071C19.8946 9.51957 20 9.26521 20 9C20 6.61305 19.0518 4.32386 17.364 2.63604C15.6761 0.948211 13.3869 0 11 0C10.7348 0 10.4804 0.105357 10.2929 0.292893C10.1054 0.480429 10 0.734783 10 1C10 1.26522 10.1054 1.51957 10.2929 1.70711C10.4804 1.89464 10.7348 2 11 2ZM19.75 13.91C19.695 13.7495 19.6 13.6056 19.4741 13.4919C19.3481 13.3781 19.1953 13.2983 19.03 13.26L13.03 11.89C12.8671 11.8531 12.6976 11.8575 12.5369 11.9029C12.3762 11.9483 12.2294 12.0333 12.11 12.15C11.97 12.28 11.96 12.29 11.31 13.53C9.1532 12.5362 7.42499 10.8009 6.44 8.64C7.71 8 7.72 8 7.85 7.85C7.96671 7.73055 8.05165 7.58378 8.09706 7.42308C8.14248 7.26238 8.14693 7.09286 8.11 6.93L6.74 1C6.70164 0.834696 6.62186 0.681871 6.50814 0.555911C6.39443 0.429952 6.25053 0.335002 6.09 0.28C5.85647 0.196589 5.61531 0.1363 5.37 0.0999999C5.11725 0.0413952 4.85933 0.00789934 4.6 0C3.38 0 2.20998 0.484641 1.34731 1.34731C0.484641 2.20998 0 3.38 0 4.6C0.00529192 8.68271 1.62949 12.5967 4.5164 15.4836C7.40331 18.3705 11.3173 19.9947 15.4 20C16.0041 20 16.6022 19.881 17.1603 19.6498C17.7184 19.4187 18.2255 19.0798 18.6527 18.6527C19.0798 18.2255 19.4187 17.7184 19.6498 17.1603C19.881 16.6022 20 16.0041 20 15.4C20.0003 15.1455 19.9802 14.8913 19.94 14.64C19.898 14.3916 19.8344 14.1474 19.75 13.91Z"
                fill="#FF7F22" />
        </g>
    </g>
    <defs>
        <clipPath id="clip0">
            <rect width="375" height="812" fill="white" transform="translate(-331 -65)" />
        </clipPath>
        <clipPath id="clip1">
            <rect width="20" height="20" fill="white" />
        </clipPath>
    </defs>
</svg>