<svg width="13" height="13" viewBox="0 0 13 13" fill="none" xmlns="http://www.w3.org/2000/svg">
<path d="M6.5 2.3V1.25" stroke="white" stroke-width="2.4" stroke-linecap="round" stroke-linejoin="round"/>
<path d="M6.5 11.75V10.7" stroke="white" stroke-width="2.4" stroke-linecap="round" stroke-linejoin="round"/>
<path d="M6.49997 2.72009C5.75236 2.72009 5.02153 2.94179 4.39992 3.35714C3.7783 3.77249 3.29381 4.36284 3.00771 5.05355C2.72161 5.74425 2.64675 6.50429 2.7926 7.23753C2.93846 7.97078 3.29847 8.64431 3.82711 9.17296C4.35575 9.7016 5.02928 10.0616 5.76253 10.2075C6.49578 10.3533 7.25581 10.2785 7.94652 9.99236C8.63722 9.70626 9.22758 9.22177 9.64293 8.60015C10.0583 7.97853 10.28 7.24771 10.28 6.50009C10.28 5.49757 9.88172 4.53612 9.17284 3.82723C8.46395 3.11834 7.50249 2.72009 6.49997 2.72009Z" stroke="white" stroke-width="2.4" stroke-linecap="round" stroke-linejoin="round"/>
<path d="M10.7 6.5H11.75" stroke="white" stroke-width="2.4" stroke-linecap="round" stroke-linejoin="round"/>
<path d="M1.25 6.5H2.3" stroke="white" stroke-width="2.4" stroke-linecap="round" stroke-linejoin="round"/>
</svg>
