<svg width="18" height="18" viewBox="0 0 18 18" fill="none" xmlns="http://www.w3.org/2000/svg">
<path d="M0 9C0 7.77966 0.236636 6.61212 0.709909 5.49739C1.18318 4.38266 1.82073 3.42634 2.62256 2.62842C3.42438 1.83051 4.37875 1.19296 5.48566 0.715776C6.59257 0.238592 7.75619 0 8.97653 0C10.2047 0 11.3742 0.238592 12.485 0.715776C13.5958 1.19296 14.5541 1.83246 15.3598 2.63429C16.1656 3.43611 16.807 4.39244 17.2842 5.50326C17.7614 6.61408 18 7.77575 18 8.98827C18 10.2086 17.7614 11.3761 17.2842 12.4909C16.807 13.6056 16.1656 14.5658 15.3598 15.3716C14.5541 16.1773 13.5958 16.8168 12.485 17.2901C11.3742 17.7634 10.2086 18 8.98827 18C7.77575 18 6.61408 17.7634 5.50326 17.2901C4.39244 16.8168 3.43611 16.1793 2.63429 15.3774C1.83246 14.5756 1.19296 13.6193 0.715776 12.5085C0.238592 11.3977 0 10.2282 0 9ZM1.97132 9C1.97132 10.2673 2.28618 11.4387 2.91591 12.5143C3.54563 13.59 4.40026 14.4387 5.47979 15.0606C6.55932 15.6825 7.72881 15.9935 8.98827 15.9935C9.93481 15.9935 10.8422 15.8077 11.7106 15.4361C12.5789 15.0645 13.3279 14.5658 13.9576 13.94C14.5874 13.3142 15.088 12.5691 15.4596 11.7047C15.8312 10.8403 16.0169 9.93481 16.0169 8.98827C16.0169 7.07953 15.3207 5.42894 13.9283 4.03651C12.5359 2.65971 10.8853 1.97132 8.97653 1.97132C8.02999 1.97132 7.12451 2.15906 6.2601 2.53455C5.3957 2.91004 4.65059 3.41069 4.02477 4.03651C3.39896 4.66232 2.90026 5.40939 2.52868 6.27771C2.15711 7.14602 1.97132 8.05345 1.97132 9ZM5.1043 9.09387C5.1043 9.03911 5.15124 9 5.24511 8.97653L12.3325 6.04302C12.4185 6.02738 12.4831 6.04107 12.5261 6.08409C12.5691 6.12712 12.575 6.19166 12.5437 6.27771L9.63364 13.3651C9.61799 13.4511 9.57497 13.4941 9.50456 13.4941C9.41851 13.4941 9.35593 13.4511 9.31682 13.3651L8.10821 10.6662C8.03781 10.5567 7.98305 10.498 7.94394 10.4902L5.24511 9.26988C5.15124 9.23077 5.1043 9.1721 5.1043 9.09387Z" fill="#253646"/>
</svg>
