<svg width="23" height="20" viewBox="0 0 23 20" fill="none" xmlns="http://www.w3.org/2000/svg">
<path d="M20.8704 3.07692H17.25L16.3875 0.582418C16.3279 0.411726 16.2187 0.264181 16.0748 0.159938C15.9309 0.0556961 15.7594 -0.00016006 15.5836 3.44513e-07H7.41644C7.05706 3.44513e-07 6.73495 0.233517 6.61516 0.582418L5.75 3.07692H2.12963C0.953009 3.07692 0 4.06044 0 5.27473V17.8022C0 19.0165 0.953009 20 2.12963 20H20.8704C22.047 20 23 19.0165 23 17.8022V5.27473C23 4.06044 22.047 3.07692 20.8704 3.07692ZM11.5 15.6044C9.14676 15.6044 7.24074 13.6374 7.24074 11.2088C7.24074 8.78022 9.14676 6.81319 11.5 6.81319C13.8532 6.81319 15.7593 8.78022 15.7593 11.2088C15.7593 13.6374 13.8532 15.6044 11.5 15.6044ZM8.94444 11.2088C8.94444 11.9083 9.21369 12.5791 9.69295 13.0737C10.1722 13.5683 10.8222 13.8462 11.5 13.8462C12.1778 13.8462 12.8278 13.5683 13.3071 13.0737C13.7863 12.5791 14.0556 11.9083 14.0556 11.2088C14.0556 10.5093 13.7863 9.8385 13.3071 9.34389C12.8278 8.84929 12.1778 8.57143 11.5 8.57143C10.8222 8.57143 10.1722 8.84929 9.69295 9.34389C9.21369 9.8385 8.94444 10.5093 8.94444 11.2088Z" fill="white"/>
</svg>
