<svg width="46" height="46" viewBox="0 0 46 46" fill="none" xmlns="http://www.w3.org/2000/svg">
<circle cx="23" cy="23" r="23" fill="#FFD94F"/>
<path d="M24.75 16.25H22.25V21.25H17.25V23.75H22.25V28.7501H24.75V23.75H29.7501V21.25H24.75V16.25ZM23.5 10C16.6 10 11 15.6 11 22.5C11 29.4001 16.6 35.0001 23.5 35.0001C30.4001 35.0001 36.0001 29.4001 36.0001 22.5C36.0001 15.6 30.4001 10 23.5 10ZM23.5 32.5001C17.9875 32.5001 13.5 28.0126 13.5 22.5C13.5 16.9875 17.9875 12.5 23.5 12.5C29.0126 12.5 33.5001 16.9875 33.5001 22.5C33.5001 28.0126 29.0126 32.5001 23.5 32.5001Z" fill="white"/>
</svg>
