<svg width="15" height="15" viewBox="0 0 15 15" fill="none" xmlns="http://www.w3.org/2000/svg">
<path fill-rule="evenodd" clip-rule="evenodd" d="M1.06553 1.12056C0.821454 1.36464 0.821454 1.76036 1.06553 2.00444L6.58979 7.52869L1.06539 13.0531C0.821304 13.2972 0.821304 13.6929 1.06539 13.9369C1.30946 14.1811 1.70519 14.1811 1.94927 13.9369L7.47366 8.41256L12.998 13.9369C13.242 14.1809 13.6378 14.1809 13.8818 13.9369C14.1259 13.6928 14.1259 13.2971 13.8818 13.053L8.35754 7.52869L13.8817 2.00454C14.1258 1.76046 14.1258 1.36473 13.8817 1.12065C13.6376 0.876575 13.2419 0.876575 12.9978 1.12065L7.47366 6.64481L1.94942 1.12056C1.70534 0.876481 1.30961 0.876481 1.06553 1.12056Z" fill="#282828"/>
</svg>
