<svg width="23" height="20" viewBox="0 0 23 20" fill="none" xmlns="http://www.w3.org/2000/svg">
<path d="M20.8704 3.07686H17.25L16.3875 0.582357C16.3279 0.411665 16.2187 0.26412 16.0748 0.159877C15.9309 0.0556351 15.7594 -0.000221095 15.5836 -6.06906e-05H7.41644C7.05706 -6.06906e-05 6.73495 0.233456 6.61516 0.582357L5.75 3.07686H2.12963C0.953009 3.07686 0 4.06038 0 5.27466V17.8021C0 19.0164 0.953009 19.9999 2.12963 19.9999H20.8704C22.047 19.9999 23 19.0164 23 17.8021V5.27466C23 4.06038 22.047 3.07686 20.8704 3.07686ZM11.5 15.6043C9.14676 15.6043 7.24074 13.6373 7.24074 11.2087C7.24074 8.78016 9.14676 6.81313 11.5 6.81313C13.8532 6.81313 15.7593 8.78016 15.7593 11.2087C15.7593 13.6373 13.8532 15.6043 11.5 15.6043ZM8.94444 11.2087C8.94444 11.9082 9.21369 12.579 9.69295 13.0736C10.1722 13.5682 10.8222 13.8461 11.5 13.8461C12.1778 13.8461 12.8278 13.5682 13.3071 13.0736C13.7863 12.579 14.0556 11.9082 14.0556 11.2087C14.0556 10.5093 13.7863 9.83844 13.3071 9.34383C12.8278 8.84923 12.1778 8.57137 11.5 8.57137C10.8222 8.57137 10.1722 8.84923 9.69295 9.34383C9.21369 9.83844 8.94444 10.5093 8.94444 11.2087Z" fill="#FF7F22"/>
</svg>
