<svg width="23" height="23" viewBox="0 0 23 23" fill="none" xmlns="http://www.w3.org/2000/svg">
<circle cx="11.5" cy="11.5" r="10.75" fill="#E32727" stroke="white" stroke-width="1.5"/>
<path d="M7.07255 5.98822C6.92795 5.84857 6.73429 5.77129 6.53328 5.77304C6.33226 5.77479 6.13997 5.85542 5.99782 5.99756C5.85568 6.13971 5.77505 6.332 5.7733 6.53302C5.77155 6.73403 5.84883 6.92769 5.98848 7.07229L10.416 11.4998L5.98772 15.9273C5.91449 15.998 5.85609 16.0826 5.81591 16.1761C5.77572 16.2697 5.75458 16.3703 5.75369 16.4721C5.75281 16.5739 5.7722 16.6748 5.81075 16.7691C5.8493 16.8633 5.90623 16.9489 5.97821 17.0209C6.0502 17.0928 6.1358 17.1498 6.23002 17.1883C6.32424 17.2269 6.42519 17.2463 6.52699 17.2454C6.62879 17.2445 6.72939 17.2233 6.82293 17.1832C6.91646 17.143 7.00106 17.0846 7.07178 17.0114L11.5 12.5839L15.9275 17.0114C16.0721 17.151 16.2658 17.2283 16.4668 17.2265C16.6678 17.2248 16.8601 17.1442 17.0023 17.002C17.1444 16.8599 17.2251 16.6676 17.2268 16.4666C17.2285 16.2655 17.1513 16.0719 17.0116 15.9273L12.5841 11.4998L17.0116 7.07229C17.1513 6.92769 17.2285 6.73403 17.2268 6.53302C17.2251 6.332 17.1444 6.13971 17.0023 5.99756C16.8601 5.85542 16.6678 5.77479 16.4668 5.77304C16.2658 5.77129 16.0721 5.84857 15.9275 5.98822L11.5 10.4157L7.07255 5.98746V5.98822Z" fill="white"/>
</svg>
