<svg width="23" height="23" viewBox="0 0 23 23" fill="none" xmlns="http://www.w3.org/2000/svg">
<path d="M12.487 2.27037C14.5945 2.27037 16.6157 3.10757 18.1059 4.59778C19.5961 6.088 20.4333 8.10917 20.4333 10.2167C20.4333 10.5177 20.5529 10.8065 20.7658 11.0194C20.9787 11.2322 21.2674 11.3518 21.5685 11.3518C21.8696 11.3518 22.1583 11.2322 22.3712 11.0194C22.5841 10.8065 22.7037 10.5177 22.7037 10.2167C22.7037 7.50703 21.6273 4.90839 19.7113 2.99239C17.7953 1.07639 15.1967 0 12.487 0C12.186 0 11.8972 0.119599 11.6843 0.332488C11.4714 0.545376 11.3518 0.834115 11.3518 1.13518C11.3518 1.43625 11.4714 1.72499 11.6843 1.93788C11.8972 2.15077 12.186 2.27037 12.487 2.27037ZM22.4199 15.7904C22.3575 15.6082 22.2497 15.4448 22.1067 15.3157C21.9637 15.1867 21.7902 15.0961 21.6026 15.0525L14.7915 13.4973C14.6066 13.4554 14.4141 13.4605 14.2317 13.512C14.0493 13.5636 13.8827 13.66 13.7471 13.7925C13.5882 13.9401 13.5768 13.9514 12.8389 15.359C10.3906 14.2309 8.42874 12.261 7.31059 9.80799C8.75227 9.08148 8.76363 9.08148 8.9112 8.9112C9.04369 8.77561 9.14011 8.609 9.19166 8.42657C9.24322 8.24414 9.24827 8.05171 9.20635 7.86683L7.65114 1.13518C7.60761 0.947534 7.51703 0.774049 7.38795 0.631062C7.25886 0.488075 7.09551 0.380289 6.91327 0.317852C6.64817 0.223165 6.37441 0.154726 6.09594 0.113518C5.80903 0.0469912 5.51624 0.00896721 5.22185 0C3.83693 0 2.50873 0.550158 1.52944 1.52944C0.550158 2.50873 0 3.83693 0 5.22185C0.0060073 9.85648 1.84977 14.2996 5.12695 17.5767C8.40413 20.8539 12.8472 22.6977 17.4818 22.7037C18.1676 22.7037 18.8466 22.5686 19.4802 22.3062C20.1137 22.0438 20.6894 21.6591 21.1742 21.1742C21.6591 20.6894 22.0438 20.1137 22.3062 19.4802C22.5686 18.8466 22.7037 18.1676 22.7037 17.4818C22.704 17.1929 22.6813 16.9044 22.6356 16.6191C22.5879 16.3371 22.5157 16.0599 22.4199 15.7904Z" fill="#FF7F22"/>
</svg>
