<svg width="59" height="59" viewBox="0 0 59 59" fill="none" xmlns="http://www.w3.org/2000/svg">
<rect width="59" height="59" rx="10" fill="#FF9466"/>
<path d="M36.5312 24.5781V22.7969C36.5312 22.6336 36.3977 22.5 36.2344 22.5H21.9844C21.8211 22.5 21.6875 22.6336 21.6875 22.7969V24.5781C21.6875 24.7414 21.8211 24.875 21.9844 24.875H36.2344C36.3977 24.875 36.5312 24.7414 36.5312 24.5781ZM21.9844 27.8438C21.8211 27.8438 21.6875 27.9773 21.6875 28.1406V29.9219C21.6875 30.0852 21.8211 30.2188 21.9844 30.2188H28.8125C28.9758 30.2188 29.1094 30.0852 29.1094 29.9219V28.1406C29.1094 27.9773 28.9758 27.8438 28.8125 27.8438H21.9844ZM35.9375 32.1484C31.5104 32.1484 27.9219 35.7369 27.9219 40.1641C27.9219 44.5912 31.5104 48.1797 35.9375 48.1797C40.3646 48.1797 43.9531 44.5912 43.9531 40.1641C43.9531 35.7369 40.3646 32.1484 35.9375 32.1484ZM39.9268 44.1533C38.8617 45.2184 37.4441 45.8047 35.9375 45.8047C34.4309 45.8047 33.0133 45.2184 31.9482 44.1533C30.8832 43.0883 30.2969 41.6707 30.2969 40.1641C30.2969 38.6574 30.8832 37.2398 31.9482 36.1748C33.0133 35.1098 34.4309 34.5234 35.9375 34.5234C37.4441 34.5234 38.8617 35.1098 39.9268 36.1748C40.9918 37.2398 41.5781 38.6574 41.5781 40.1641C41.5781 41.6707 40.9918 43.0883 39.9268 44.1533ZM39.2402 37.3438H37.5963C37.4998 37.3438 37.4107 37.3883 37.3551 37.4662L34.9986 40.7244L34.1414 39.5406C34.1139 39.5024 34.0777 39.4713 34.0357 39.45C33.9938 39.4287 33.9473 39.4178 33.9002 39.4182H32.2637C32.0225 39.4182 31.8814 39.6928 32.0225 39.8895L34.7611 43.6783C34.8799 43.8416 35.1211 43.8416 35.2398 43.6783L39.4777 37.815C39.6225 37.6184 39.4814 37.3438 39.2402 37.3438ZM27.3281 44.6172H18.7188V18.4922H39.5V31.2578C39.5 31.4211 39.6336 31.5547 39.7969 31.5547H41.875C42.0383 31.5547 42.1719 31.4211 42.1719 31.2578V17.0078C42.1719 16.351 41.6412 15.8203 40.9844 15.8203H17.2344C16.5775 15.8203 16.0469 16.351 16.0469 17.0078V46.1016C16.0469 46.7584 16.5775 47.2891 17.2344 47.2891H27.3281C27.4914 47.2891 27.625 47.1555 27.625 46.9922V44.9141C27.625 44.7508 27.4914 44.6172 27.3281 44.6172Z" fill="white"/>
</svg>
