<svg width="13" height="13" viewBox="0 0 13 13" fill="none" xmlns="http://www.w3.org/2000/svg">
<circle cx="6.5" cy="6.5" r="5.9" fill="#FE6060" stroke="white" stroke-width="1.2"/>
<path d="M7.25 3.61L7.106 7.957H6.044L5.891 3.61H7.25ZM6.602 10.063C6.374 10.063 6.185 9.994 6.035 9.856C5.891 9.712 5.819 9.535 5.819 9.325C5.819 9.115 5.891 8.941 6.035 8.803C6.185 8.659 6.374 8.587 6.602 8.587C6.824 8.587 7.007 8.659 7.151 8.803C7.295 8.941 7.367 9.115 7.367 9.325C7.367 9.535 7.295 9.712 7.151 9.856C7.007 9.994 6.824 10.063 6.602 10.063Z" fill="white"/>
</svg>
