<svg width="29" height="29" viewBox="0 0 29 29" fill="none" xmlns="http://www.w3.org/2000/svg">
<path d="M14.5 0C12.6038 0 11.1538 1.45 11.1538 3.34615V10.0385C11.1538 11.9346 12.6038 13.3846 14.5 13.3846H21.1923L25.6538 17.8462V13.3846C27.55 13.3846 29 11.9346 29 10.0385V3.34615C29 1.45 27.55 0 25.6538 0H14.5ZM19.1712 3.34615H21.0875L22.9702 10.0385H21.2972L20.8432 8.36538H19.1701L18.753 10.0385H17.2885L19.1712 3.34615ZM20.0769 4.46154C19.9654 4.90769 19.8405 5.452 19.7278 5.78662L19.4155 7.25H20.7395L20.4249 5.7855C20.203 5.452 20.0769 4.90769 20.0769 4.46154ZM3.34615 11.1538C1.45 11.1538 0 12.6038 0 14.5V21.1923C0 23.0885 1.45 24.5385 3.34615 24.5385V29L7.80769 24.5385H14.5C16.3962 24.5385 17.8462 23.0885 17.8462 21.1923V14.5H14.5C12.3808 14.5 10.701 13.05 10.1433 11.1538H3.34615ZM8.47023 14.3952C10.3664 14.3952 11.2587 15.9567 11.2587 17.7413C11.2587 19.3028 10.7222 20.2933 9.82988 20.7395C10.276 20.9625 10.8047 21.0808 11.3624 21.1923L10.9453 22.3077C10.1645 22.0846 9.35473 21.7366 8.57396 21.4009C8.46242 21.2893 8.26723 21.2972 8.15569 21.2972C6.81723 21.1856 5.57692 20.0769 5.57692 17.8462C5.57692 15.95 6.68562 14.3952 8.47023 14.3952ZM8.47023 15.6154C7.57792 15.6154 7.14515 16.6192 7.14515 17.8462C7.14515 19.1846 7.57792 20.0769 8.47023 20.0769C9.36254 20.0769 9.82877 19.0731 9.82877 17.8462C9.82877 16.6192 9.36254 15.6154 8.47023 15.6154Z" fill="#FF7F22"/>
</svg>
