<svg width="42" height="42" viewBox="0 0 42 42" fill="none" xmlns="http://www.w3.org/2000/svg">
<circle cx="20.8387" cy="20.8387" r="20.8387" fill="#FF9466"/>
<g clip-path="url(#clip0)">
<path d="M31.539 20.4106C31.5495 26.081 26.9252 30.7177 21.2548 30.7217C18.8058 30.7235 16.5562 29.8698 14.7884 28.443C14.3287 28.072 14.2944 27.3831 14.7121 26.9653L15.1797 26.4978C15.5369 26.1405 16.1073 26.1014 16.5031 26.4154C17.8055 27.449 19.4538 28.0658 21.2474 28.0658C25.468 28.0658 28.8831 24.6501 28.8831 20.4301C28.8831 16.2095 25.4673 12.7943 21.2474 12.7943C19.2216 12.7943 17.3818 13.5815 16.0157 14.8665L18.1219 16.9727C18.5402 17.391 18.244 18.1062 17.6525 18.1062H11.6197C11.2529 18.1062 10.9557 17.8089 10.9557 17.4422V11.4094C10.9557 10.8179 11.6709 10.5216 12.0892 10.9399L14.1381 12.9888C15.9857 11.223 18.4899 10.1384 21.2474 10.1384C26.9248 10.1384 31.5285 14.7356 31.539 20.4106ZM24.0314 23.6801L24.4391 23.1559C24.7768 22.7217 24.6985 22.096 24.2643 21.7583L22.5753 20.4446V16.1142C22.5753 15.5642 22.1294 15.1183 21.5793 15.1183H20.9154C20.3653 15.1183 19.9194 15.5642 19.9194 16.1142V21.7436L22.6338 23.8548C23.068 24.1924 23.6937 24.1143 24.0314 23.6801Z" fill="white"/>
</g>
<defs>
<clipPath id="clip0">
<rect width="21.2473" height="21.2473" fill="white" transform="translate(10.6237 9.8064)"/>
</clipPath>
</defs>
</svg>
