<svg width="46" height="46" viewBox="0 0 46 46" fill="none" xmlns="http://www.w3.org/2000/svg">
<circle cx="23" cy="23" r="23" fill="#58DA72"/>
<path d="M34.8101 22.5276C34.8216 28.786 29.7177 33.9037 23.4592 33.9081C20.7562 33.91 18.2733 32.9677 16.3222 31.393C15.8148 30.9835 15.7769 30.2231 16.2379 29.7621L16.754 29.246C17.1483 28.8517 17.7778 28.8086 18.2147 29.1552C19.6522 30.2959 21.4714 30.9767 23.451 30.9767C28.1094 30.9767 31.8787 27.2067 31.8787 22.549C31.8787 17.8907 28.1086 14.1213 23.451 14.1213C21.2152 14.1213 19.1845 14.9902 17.6767 16.4084L20.0014 18.733C20.4631 19.1947 20.1361 19.9841 19.4832 19.9841H12.8248C12.42 19.9841 12.0919 19.656 12.0919 19.2512V12.5928C12.0919 11.9399 12.8813 11.6129 13.343 12.0746L15.6043 14.3359C17.6436 12.3871 20.4075 11.19 23.451 11.19C29.7173 11.19 34.7985 16.264 34.8101 22.5276ZM26.5238 26.1361L26.9737 25.5576C27.3465 25.0784 27.2601 24.3877 26.7809 24.015L24.9167 22.565V17.7856C24.9167 17.1784 24.4245 16.6863 23.8174 16.6863H23.0846C22.4775 16.6863 21.9853 17.1784 21.9853 17.7856V23.9987L24.9812 26.3289C25.4604 26.7016 26.1511 26.6153 26.5238 26.1361Z" fill="white"/>
</svg>
