<svg width="42" height="42" viewBox="0 0 42 42" fill="none" xmlns="http://www.w3.org/2000/svg">
<circle cx="20.8387" cy="20.8387" r="20.8387" fill="#5DC474"/>
<g clip-path="url(#clip0)">
<path d="M32.6328 20.4086C32.6444 26.6816 27.5286 31.8111 21.2556 31.8155C18.5463 31.8174 16.0577 30.873 14.102 29.2946C13.5935 28.8841 13.5554 28.122 14.0176 27.6599L14.5348 27.1426C14.9301 26.7474 15.561 26.7041 15.9989 27.0515C17.4398 28.1949 19.2632 28.8773 21.2474 28.8773C25.9165 28.8773 29.6946 25.0985 29.6946 20.4301C29.6946 15.7609 25.9158 11.9828 21.2474 11.9828C19.0064 11.9828 16.971 12.8537 15.4597 14.2752L17.7898 16.6052C18.2525 17.068 17.9248 17.8592 17.2704 17.8592H10.5965C10.1908 17.8592 9.86194 17.5303 9.86194 17.1247V10.4507C9.86194 9.79634 10.6531 9.4686 11.1159 9.93132L13.3825 12.1979C15.4265 10.2446 18.1968 9.04468 21.2474 9.04468C27.5282 9.04468 32.6212 14.1305 32.6328 20.4086ZM24.3273 24.0255L24.7783 23.4456C25.1519 22.9653 25.0653 22.273 24.585 21.8995L22.7164 20.4461V15.6556C22.7164 15.047 22.2231 14.5537 21.6146 14.5537H20.8801C20.2716 14.5537 19.7783 15.047 19.7783 15.6556V21.8832L22.7811 24.2187C23.2615 24.5923 23.9537 24.5058 24.3273 24.0255Z" fill="white"/>
<path d="M23.1429 14H19.1429L18 21.4286L18.5714 25.1429L23.1429 27L26 25.1429L25.4286 21.4286L24.2857 17.0952L23.1429 14Z" fill="#58DA72"/>
<circle cx="21.3964" cy="20.0982" r="7.6036" fill="#FF7F22"/>
<circle cx="21.0432" cy="20.4512" r="7.14063" fill="white"/>
<path d="M20.472 22.5731H20.4325C20.2374 22.5731 20.0502 22.4956 19.9123 22.3576C19.7743 22.2197 19.6968 22.0325 19.6968 21.8374C19.6968 21.6318 19.6151 21.4346 19.4697 21.2892C19.3243 21.1438 19.1271 21.0621 18.9215 21.0621C18.7159 21.0621 18.5187 21.1438 18.3733 21.2892C18.2279 21.4346 18.1462 21.6318 18.1462 21.8374C18.1462 22.4437 18.3871 23.0253 18.8159 23.454C19.2446 23.8828 19.8262 24.1237 20.4325 24.1237H20.472V24.8989C20.472 25.1045 20.5537 25.3017 20.6991 25.4471C20.8445 25.5925 21.0417 25.6742 21.2473 25.6742C21.4529 25.6742 21.6501 25.5925 21.7955 25.4471C21.9409 25.3017 22.0226 25.1045 22.0226 24.8989V24.1237C22.6394 24.1237 23.231 23.8786 23.6672 23.4424C24.1034 23.0063 24.3484 22.4147 24.3484 21.7979C24.3484 21.181 24.1034 20.5894 23.6672 20.1533C23.231 19.7171 22.6394 19.472 22.0226 19.472V17.9215H22.0396C22.4583 17.9215 22.7979 18.2611 22.7979 18.6797C22.7979 18.8853 22.8795 19.0825 23.0249 19.2279C23.1703 19.3733 23.3675 19.455 23.5731 19.455C23.7787 19.455 23.9759 19.3733 24.1213 19.2279C24.2667 19.0825 24.3484 18.8853 24.3484 18.6797C24.3484 18.0674 24.1051 17.4802 23.6722 17.0472C23.2392 16.6142 22.652 16.371 22.0396 16.371H22.0226V15.5957C22.0226 15.3901 21.9409 15.1929 21.7955 15.0475C21.6501 14.9021 21.4529 14.8204 21.2473 14.8204C21.0417 14.8204 20.8445 14.9021 20.6991 15.0475C20.5537 15.1929 20.472 15.3901 20.472 15.5957V16.371C19.8552 16.371 19.2636 16.616 18.8275 17.0522C18.3913 17.4884 18.1462 18.0799 18.1462 18.6968C18.1462 19.3136 18.3913 19.9052 18.8275 20.3414C19.2636 20.7775 19.8552 21.0226 20.472 21.0226V22.5731ZM22.0226 22.5731V21.0226C22.2282 21.0226 22.4254 21.1043 22.5708 21.2497C22.7162 21.395 22.7979 21.5922 22.7979 21.7979C22.7979 22.0035 22.7162 22.2007 22.5708 22.3461C22.4254 22.4914 22.2282 22.5731 22.0226 22.5731ZM20.472 17.9215V19.472C20.2664 19.472 20.0692 19.3904 19.9239 19.245C19.7785 19.0996 19.6968 18.9024 19.6968 18.6968C19.6968 18.4912 19.7785 18.294 19.9239 18.1486C20.0692 18.0032 20.2664 17.9215 20.472 17.9215ZM21.2473 28C16.9655 28 13.4946 24.5291 13.4946 20.2473C13.4946 15.9655 16.9655 12.4946 21.2473 12.4946C25.5291 12.4946 29 15.9655 29 20.2473C29 24.5291 25.5291 28 21.2473 28Z" fill="#5DC474"/>
</g>
<defs>
<clipPath id="clip0">
<rect width="23.5054" height="23.5054" fill="white" transform="translate(9.49463 8.67725)"/>
</clipPath>
</defs>
</svg>
