<svg width="20" height="20" viewBox="0 0 20 20" fill="none" xmlns="http://www.w3.org/2000/svg">
<path d="M9 13V11C8.20435 11 7.44129 10.6839 6.87868 10.1213C6.31607 9.55871 6 8.79565 6 8C6 7.20435 6.31607 6.44129 6.87868 5.87868C7.44129 5.31607 8.20435 5 9 5V4C9 3.73478 9.10536 3.48043 9.29289 3.29289C9.48043 3.10536 9.73478 3 10 3C10.2652 3 10.5196 3.10536 10.7071 3.29289C10.8946 3.48043 11 3.73478 11 4V5H11.022C11.8118 5 12.5693 5.31375 13.1278 5.87224C13.6862 6.43072 14 7.18818 14 7.978C14 8.24322 13.8946 8.49757 13.7071 8.68511C13.5196 8.87264 13.2652 8.978 13 8.978C12.7348 8.978 12.4804 8.87264 12.2929 8.68511C12.1054 8.49757 12 8.24322 12 7.978C12 7.71862 11.897 7.46986 11.7136 7.28645C11.5301 7.10304 11.2814 7 11.022 7H11V9C11.7956 9 12.5587 9.31607 13.1213 9.87868C13.6839 10.4413 14 11.2044 14 12C14 12.7956 13.6839 13.5587 13.1213 14.1213C12.5587 14.6839 11.7956 15 11 15V16C11 16.2652 10.8946 16.5196 10.7071 16.7071C10.5196 16.8946 10.2652 17 10 17C9.73478 17 9.48043 16.8946 9.29289 16.7071C9.10536 16.5196 9 16.2652 9 16V15H8.949C8.16688 15 7.41679 14.6893 6.86374 14.1363C6.3107 13.5832 6 12.8331 6 12.051C6 11.7858 6.10536 11.5314 6.29289 11.3439C6.48043 11.1564 6.73478 11.051 7 11.051C7.26522 11.051 7.51957 11.1564 7.70711 11.3439C7.89464 11.5314 8 11.7858 8 12.051C8.00027 12.3026 8.10033 12.5438 8.27825 12.7218C8.45616 12.8997 8.69739 12.9997 8.949 13H9ZM11 13C11.2652 13 11.5196 12.8946 11.7071 12.7071C11.8946 12.5196 12 12.2652 12 12C12 11.7348 11.8946 11.4804 11.7071 11.2929C11.5196 11.1054 11.2652 11 11 11V13ZM9 7C8.73478 7 8.48043 7.10536 8.29289 7.29289C8.10536 7.48043 8 7.73478 8 8C8 8.26522 8.10536 8.51957 8.29289 8.70711C8.48043 8.89464 8.73478 9 9 9V7ZM10 20C4.477 20 0 15.523 0 10C0 4.477 4.477 0 10 0C15.523 0 20 4.477 20 10C20 15.523 15.523 20 10 20ZM10 18C12.1217 18 14.1566 17.1571 15.6569 15.6569C17.1571 14.1566 18 12.1217 18 10C18 7.87827 17.1571 5.84344 15.6569 4.34315C14.1566 2.84285 12.1217 2 10 2C7.87827 2 5.84344 2.84285 4.34315 4.34315C2.84285 5.84344 2 7.87827 2 10C2 12.1217 2.84285 14.1566 4.34315 15.6569C5.84344 17.1571 7.87827 18 10 18Z" fill="#F8C50F"/>
</svg>
