<svg width="13" height="13" viewBox="0 0 13 13" fill="none" xmlns="http://www.w3.org/2000/svg">
<circle cx="6.5" cy="6.5" r="5.9" fill="#979797" stroke="white" stroke-width="1.2"/>
<path d="M6.50002 3.58325C5.73418 3.58325 5.11113 4.23746 5.11113 5.04159V5.62492H4.83335C4.52696 5.62492 4.27779 5.88654 4.27779 6.20825V8.83325C4.27779 9.15496 4.52696 9.41659 4.83335 9.41659H8.16668C8.47307 9.41659 8.72224 9.15496 8.72224 8.83325V6.20825C8.72224 5.88654 8.47307 5.62492 8.16668 5.62492H7.8889V5.04159C7.8889 4.23746 7.26585 3.58325 6.50002 3.58325ZM5.66668 5.04159C5.66668 4.55917 6.04057 4.16659 6.50002 4.16659C6.95946 4.16659 7.33335 4.55917 7.33335 5.04159V5.62492H5.66668V5.04159ZM8.16724 8.83325H6.77779V8.16884C6.94307 8.06763 7.05557 7.88154 7.05557 7.66659C7.05557 7.34488 6.8064 7.08325 6.50002 7.08325C6.19363 7.08325 5.94446 7.34488 5.94446 7.66659C5.94446 7.88125 6.05696 8.06763 6.22224 8.16884V8.83325H4.83335V6.20825H8.16668L8.16724 8.83325Z" fill="white"/>
</svg>
