<svg width="181" height="241" viewBox="0 0 181 241" fill="none" xmlns="http://www.w3.org/2000/svg">
<path d="M23.399 228.538H27.1171C28.0497 228.538 28.8774 228.723 29.6 229.092C30.3226 229.462 30.8813 229.983 31.2762 230.655C31.6795 231.319 31.8812 232.084 31.8812 232.949C31.8812 233.815 31.6795 234.583 31.2762 235.256C30.8813 235.919 30.3226 236.436 29.6 236.806C28.8774 237.176 28.0497 237.36 27.1171 237.36H23.399V228.538ZM27.0415 236.264C27.7557 236.264 28.3816 236.125 28.9194 235.848C29.4655 235.571 29.8856 235.184 30.1797 234.688C30.4738 234.184 30.6208 233.605 30.6208 232.949C30.6208 232.294 30.4738 231.718 30.1797 231.222C29.8856 230.718 29.4655 230.328 28.9194 230.05C28.3816 229.773 27.7557 229.634 27.0415 229.634H24.6594V236.264H27.0415ZM40.3025 234.058C40.3025 234.151 40.2941 234.272 40.2773 234.424H34.8578C34.9334 235.012 35.1897 235.487 35.6266 235.848C36.0719 236.201 36.6223 236.377 37.2776 236.377C38.0759 236.377 38.7186 236.108 39.206 235.571L39.874 236.352C39.5715 236.705 39.1934 236.974 38.7397 237.159C38.2943 237.344 37.7944 237.436 37.2398 237.436C36.534 237.436 35.9081 237.293 35.3619 237.007C34.8158 236.713 34.3915 236.306 34.089 235.785C33.7949 235.264 33.6478 234.676 33.6478 234.02C33.6478 233.373 33.7907 232.789 34.0764 232.269C34.3704 231.748 34.7696 231.344 35.2737 231.059C35.7862 230.765 36.3618 230.617 37.0004 230.617C37.6389 230.617 38.2061 230.765 38.7018 231.059C39.206 231.344 39.5967 231.748 39.874 232.269C40.1596 232.789 40.3025 233.386 40.3025 234.058ZM37.0004 231.638C36.4206 231.638 35.9333 231.815 35.5384 232.168C35.1519 232.521 34.925 232.983 34.8578 233.554H39.143C39.0757 232.991 38.8447 232.533 38.4498 232.18C38.0633 231.819 37.5801 231.638 37.0004 231.638ZM42.6128 228.009H43.8227V237.36H42.6128V228.009ZM46.763 230.681H47.973V237.36H46.763V230.681ZM47.368 229.395C47.1327 229.395 46.9353 229.319 46.7757 229.168C46.6244 229.017 46.5488 228.832 46.5488 228.614C46.5488 228.395 46.6244 228.21 46.7757 228.059C46.9353 227.899 47.1327 227.82 47.368 227.82C47.6033 227.82 47.7965 227.895 47.9478 228.046C48.1074 228.189 48.1872 228.37 48.1872 228.588C48.1872 228.815 48.1074 229.008 47.9478 229.168C47.7965 229.319 47.6033 229.395 47.368 229.395ZM56.8244 230.681L53.9004 237.36H52.6652L49.7412 230.681H51.0016L53.2954 236.037L55.6396 230.681H56.8244ZM64.4362 234.058C64.4362 234.151 64.4278 234.272 64.411 234.424H58.9915C59.0671 235.012 59.3234 235.487 59.7603 235.848C60.2056 236.201 60.756 236.377 61.4113 236.377C62.2096 236.377 62.8523 236.108 63.3397 235.571L64.0077 236.352C63.7052 236.705 63.3271 236.974 62.8734 237.159C62.428 237.344 61.9281 237.436 61.3735 237.436C60.6677 237.436 60.0418 237.293 59.4956 237.007C58.9495 236.713 58.5251 236.306 58.2227 235.785C57.9286 235.264 57.7815 234.676 57.7815 234.02C57.7815 233.373 57.9244 232.789 58.2101 232.269C58.5041 231.748 58.9033 231.344 59.4074 231.059C59.9199 230.765 60.4955 230.617 61.1341 230.617C61.7726 230.617 62.3398 230.765 62.8355 231.059C63.3397 231.344 63.7304 231.748 64.0077 232.269C64.2933 232.789 64.4362 233.386 64.4362 234.058ZM61.1341 231.638C60.5543 231.638 60.067 231.815 59.6721 232.168C59.2856 232.521 59.0587 232.983 58.9915 233.554H63.2767C63.2094 232.991 62.9784 232.533 62.5835 232.18C62.197 231.819 61.7138 231.638 61.1341 231.638ZM67.906 231.802C68.116 231.416 68.4269 231.122 68.8386 230.92C69.2503 230.718 69.7503 230.617 70.3384 230.617V231.79C70.2712 231.781 70.1788 231.777 70.0612 231.777C69.4058 231.777 68.889 231.974 68.5109 232.369C68.1412 232.756 67.9564 233.31 67.9564 234.033V237.36H66.7465V230.681H67.906V231.802ZM78.6417 230.681L75.4026 238.028C75.1169 238.709 74.7808 239.188 74.3943 239.465C74.0162 239.742 73.5583 239.881 73.0205 239.881C72.6928 239.881 72.3736 239.826 72.0627 239.717C71.7602 239.616 71.5081 239.465 71.3065 239.263L71.8232 238.356C72.1677 238.684 72.5668 238.848 73.0205 238.848C73.3146 238.848 73.5583 238.768 73.7515 238.608C73.9532 238.457 74.1338 238.192 74.2935 237.814L74.5077 237.348L71.5585 230.681H72.8189L75.1505 236.024L77.457 230.681H78.6417ZM88.5373 237.461C87.655 237.461 86.8568 237.268 86.1426 236.881C85.4368 236.487 84.8823 235.949 84.479 235.268C84.0757 234.579 83.874 233.806 83.874 232.949C83.874 232.092 84.0757 231.323 84.479 230.643C84.8823 229.954 85.441 229.416 86.1552 229.029C86.8694 228.635 87.6676 228.437 88.5499 228.437C89.2389 228.437 89.8691 228.555 90.4404 228.79C91.0118 229.017 91.4991 229.357 91.9024 229.811L91.0832 230.605C90.4194 229.907 89.5918 229.559 88.6003 229.559C87.9449 229.559 87.3526 229.706 86.8232 230C86.2939 230.294 85.878 230.702 85.5755 231.222C85.2814 231.735 85.1343 232.311 85.1343 232.949C85.1343 233.588 85.2814 234.167 85.5755 234.688C85.878 235.201 86.2939 235.604 86.8232 235.898C87.3526 236.192 87.9449 236.339 88.6003 236.339C89.5834 236.339 90.411 235.987 91.0832 235.281L91.9024 236.075C91.4991 236.529 91.0076 236.873 90.4278 237.108C89.8565 237.344 89.2263 237.461 88.5373 237.461ZM96.732 237.436C96.0682 237.436 95.4717 237.289 94.9423 236.995C94.413 236.701 93.9971 236.297 93.6946 235.785C93.4005 235.264 93.2535 234.676 93.2535 234.02C93.2535 233.365 93.4005 232.781 93.6946 232.269C93.9971 231.748 94.413 231.344 94.9423 231.059C95.4717 230.765 96.0682 230.617 96.732 230.617C97.3958 230.617 97.9882 230.765 98.5091 231.059C99.0385 231.344 99.4502 231.748 99.7442 232.269C100.047 232.781 100.198 233.365 100.198 234.02C100.198 234.676 100.047 235.264 99.7442 235.785C99.4502 236.297 99.0385 236.701 98.5091 236.995C97.9882 237.289 97.3958 237.436 96.732 237.436ZM96.732 236.377C97.1605 236.377 97.5428 236.281 97.8789 236.087C98.2234 235.886 98.4923 235.608 98.6856 235.256C98.8788 234.894 98.9754 234.483 98.9754 234.02C98.9754 233.558 98.8788 233.151 98.6856 232.798C98.4923 232.437 98.2234 232.159 97.8789 231.966C97.5428 231.773 97.1605 231.676 96.732 231.676C96.3035 231.676 95.917 231.773 95.5725 231.966C95.2364 232.159 94.9675 232.437 94.7659 232.798C94.5726 233.151 94.476 233.558 94.476 234.02C94.476 234.483 94.5726 234.894 94.7659 235.256C94.9675 235.608 95.2364 235.886 95.5725 236.087C95.917 236.281 96.3035 236.377 96.732 236.377ZM106.068 230.617C106.917 230.617 107.589 230.865 108.085 231.361C108.589 231.848 108.841 232.567 108.841 233.516V237.36H107.631V233.655C107.631 233.008 107.476 232.521 107.165 232.193C106.854 231.865 106.409 231.701 105.829 231.701C105.173 231.701 104.657 231.895 104.279 232.281C103.9 232.659 103.711 233.205 103.711 233.92V237.36H102.501V230.681H103.661V231.689C103.905 231.344 104.232 231.08 104.644 230.895C105.064 230.71 105.539 230.617 106.068 230.617ZM113.626 237.436C113.08 237.436 112.555 237.365 112.051 237.222C111.547 237.07 111.152 236.881 110.866 236.655L111.37 235.697C111.664 235.907 112.021 236.075 112.441 236.201C112.861 236.327 113.286 236.39 113.714 236.39C114.773 236.39 115.302 236.087 115.302 235.482C115.302 235.281 115.231 235.121 115.088 235.004C114.945 234.886 114.765 234.802 114.546 234.751C114.336 234.693 114.034 234.63 113.639 234.562C113.101 234.478 112.66 234.382 112.315 234.272C111.979 234.163 111.689 233.978 111.446 233.718C111.202 233.457 111.08 233.092 111.08 232.621C111.08 232.016 111.332 231.533 111.836 231.172C112.341 230.802 113.017 230.617 113.866 230.617C114.311 230.617 114.756 230.672 115.202 230.781C115.647 230.891 116.012 231.038 116.298 231.222L115.781 232.18C115.235 231.827 114.592 231.651 113.853 231.651C113.34 231.651 112.95 231.735 112.681 231.903C112.412 232.071 112.278 232.294 112.278 232.571C112.278 232.789 112.353 232.962 112.504 233.088C112.656 233.214 112.84 233.306 113.059 233.365C113.286 233.424 113.601 233.491 114.004 233.567C114.542 233.659 114.975 233.76 115.302 233.869C115.638 233.97 115.924 234.146 116.159 234.399C116.395 234.651 116.512 235.004 116.512 235.457C116.512 236.062 116.252 236.545 115.731 236.907C115.218 237.26 114.517 237.436 113.626 237.436ZM124.881 230.681V237.36H123.734V236.352C123.49 236.697 123.167 236.965 122.763 237.159C122.368 237.344 121.936 237.436 121.465 237.436C120.575 237.436 119.873 237.192 119.36 236.705C118.848 236.209 118.592 235.482 118.592 234.525V230.681H119.802V234.386C119.802 235.033 119.957 235.524 120.268 235.861C120.579 236.188 121.024 236.352 121.604 236.352C122.242 236.352 122.747 236.159 123.116 235.772C123.486 235.386 123.671 234.84 123.671 234.134V230.681H124.881ZM127.814 228.009H129.024V237.36H127.814V228.009ZM135.88 236.97C135.704 237.121 135.485 237.239 135.225 237.323C134.965 237.398 134.696 237.436 134.418 237.436C133.746 237.436 133.225 237.255 132.856 236.894C132.486 236.533 132.301 236.016 132.301 235.344V231.676H131.167V230.681H132.301V229.219H133.511V230.681H135.427V231.676H133.511V235.293C133.511 235.655 133.599 235.932 133.776 236.125C133.96 236.318 134.221 236.415 134.557 236.415C134.927 236.415 135.242 236.31 135.502 236.1L135.88 236.97ZM137.973 230.681H139.183V237.36H137.973V230.681ZM138.578 229.395C138.343 229.395 138.146 229.319 137.986 229.168C137.835 229.017 137.759 228.832 137.759 228.614C137.759 228.395 137.835 228.21 137.986 228.059C138.146 227.899 138.343 227.82 138.578 227.82C138.814 227.82 139.007 227.895 139.158 228.046C139.318 228.189 139.398 228.37 139.398 228.588C139.398 228.815 139.318 229.008 139.158 229.168C139.007 229.319 138.814 229.395 138.578 229.395ZM145.69 230.617C146.539 230.617 147.211 230.865 147.707 231.361C148.211 231.848 148.463 232.567 148.463 233.516V237.36H147.253V233.655C147.253 233.008 147.098 232.521 146.787 232.193C146.476 231.865 146.031 231.701 145.451 231.701C144.796 231.701 144.279 231.895 143.901 232.281C143.523 232.659 143.334 233.205 143.334 233.92V237.36H142.124V230.681H143.283V231.689C143.527 231.344 143.855 231.08 144.266 230.895C144.686 230.71 145.161 230.617 145.69 230.617ZM157.759 230.681V236.453C157.759 237.621 157.47 238.482 156.89 239.037C156.31 239.6 155.445 239.881 154.293 239.881C153.663 239.881 153.063 239.793 152.491 239.616C151.92 239.448 151.458 239.205 151.105 238.885L151.685 237.953C151.995 238.222 152.378 238.432 152.831 238.583C153.294 238.743 153.768 238.822 154.256 238.822C155.037 238.822 155.613 238.638 155.982 238.268C156.36 237.898 156.55 237.335 156.55 236.579V236.05C156.264 236.394 155.911 236.655 155.491 236.831C155.079 236.999 154.63 237.083 154.142 237.083C153.504 237.083 152.924 236.949 152.403 236.68C151.89 236.402 151.487 236.02 151.193 235.533C150.899 235.037 150.752 234.474 150.752 233.844C150.752 233.214 150.899 232.655 151.193 232.168C151.487 231.672 151.89 231.29 152.403 231.021C152.924 230.752 153.504 230.617 154.142 230.617C154.646 230.617 155.113 230.71 155.541 230.895C155.978 231.08 156.335 231.353 156.613 231.714V230.681H157.759ZM154.281 236.024C154.718 236.024 155.109 235.932 155.453 235.747C155.806 235.562 156.079 235.306 156.272 234.978C156.474 234.642 156.575 234.264 156.575 233.844C156.575 233.197 156.36 232.676 155.932 232.281C155.503 231.878 154.953 231.676 154.281 231.676C153.6 231.676 153.046 231.878 152.617 232.281C152.189 232.676 151.974 233.197 151.974 233.844C151.974 234.264 152.071 234.642 152.264 234.978C152.466 235.306 152.739 235.562 153.084 235.747C153.436 235.932 153.836 236.024 154.281 236.024Z" fill="#253646"/>
<path d="M17.7604 215.75C14.7075 215.75 11.9487 215.092 9.48407 213.776C7.04739 212.46 5.12886 210.653 3.72848 208.356C2.3561 206.032 1.66991 203.427 1.66991 200.542C1.66991 197.657 2.3561 195.067 3.72848 192.77C5.12886 190.445 7.04739 188.625 9.48407 187.309C11.9487 185.992 14.7075 185.334 17.7604 185.334C20.8132 185.334 23.558 185.992 25.9946 187.309C28.4313 188.625 30.3498 190.445 31.7502 192.77C33.1506 195.067 33.8508 197.657 33.8508 200.542C33.8508 203.427 33.1506 206.032 31.7502 208.356C30.3498 210.653 28.4313 212.46 25.9946 213.776C23.558 215.092 20.8132 215.75 17.7604 215.75ZM17.7604 209.953C19.4968 209.953 21.0653 209.561 22.4657 208.777C23.866 207.964 24.9583 206.844 25.7426 205.416C26.5548 203.987 26.9609 202.363 26.9609 200.542C26.9609 198.722 26.5548 197.097 25.7426 195.669C24.9583 194.241 23.866 193.134 22.4657 192.35C21.0653 191.538 19.4968 191.132 17.7604 191.132C16.0239 191.132 14.4554 191.538 13.0551 192.35C11.6547 193.134 10.5484 194.241 9.73614 195.669C8.95192 197.097 8.55981 198.722 8.55981 200.542C8.55981 202.363 8.95192 203.987 9.73614 205.416C10.5484 206.844 11.6547 207.964 13.0551 208.777C14.4554 209.561 16.0239 209.953 17.7604 209.953ZM53.6278 215.75C50.5749 215.75 47.8162 215.092 45.3515 213.776C42.9148 212.46 40.9963 210.653 39.5959 208.356C38.2235 206.032 37.5373 203.427 37.5373 200.542C37.5373 197.657 38.2235 195.067 39.5959 192.77C40.9963 190.445 42.9148 188.625 45.3515 187.309C47.8162 185.992 50.5749 185.334 53.6278 185.334C56.6806 185.334 59.4254 185.992 61.862 187.309C64.2987 188.625 66.2172 190.445 67.6176 192.77C69.018 195.067 69.7182 197.657 69.7182 200.542C69.7182 203.427 69.018 206.032 67.6176 208.356C66.2172 210.653 64.2987 212.46 61.862 213.776C59.4254 215.092 56.6806 215.75 53.6278 215.75ZM53.6278 209.953C55.3642 209.953 56.9327 209.561 58.3331 208.777C59.7335 207.964 60.8258 206.844 61.61 205.416C62.4222 203.987 62.8283 202.363 62.8283 200.542C62.8283 198.722 62.4222 197.097 61.61 195.669C60.8258 194.241 59.7335 193.134 58.3331 192.35C56.9327 191.538 55.3642 191.132 53.6278 191.132C51.8913 191.132 50.3228 191.538 48.9225 192.35C47.5221 193.134 46.4158 194.241 45.6035 195.669C44.8193 197.097 44.4272 198.722 44.4272 200.542C44.4272 202.363 44.8193 203.987 45.6035 205.416C46.4158 206.844 47.5221 207.964 48.9225 208.777C50.3228 209.561 51.8913 209.953 53.6278 209.953ZM75.2532 185.838H88.6129C91.8058 185.838 94.6206 186.454 97.0573 187.687C99.5219 188.891 101.426 190.6 102.771 192.812C104.143 195.025 104.829 197.601 104.829 200.542C104.829 203.483 104.143 206.06 102.771 208.272C101.426 210.485 99.5219 212.207 97.0573 213.44C94.6206 214.644 91.8058 215.246 88.6129 215.246H75.2532V185.838ZM88.2768 209.659C91.2176 209.659 93.5563 208.847 95.2928 207.222C97.0573 205.57 97.9395 203.343 97.9395 200.542C97.9395 197.742 97.0573 195.529 95.2928 193.904C93.5563 192.252 91.2176 191.426 88.2768 191.426H82.0591V209.659H88.2768ZM111.578 215.582C110.43 215.582 109.464 215.19 108.679 214.406C107.895 213.622 107.503 212.642 107.503 211.465C107.503 210.261 107.895 209.295 108.679 208.566C109.464 207.81 110.43 207.432 111.578 207.432C112.726 207.432 113.693 207.81 114.477 208.566C115.261 209.295 115.653 210.261 115.653 211.465C115.653 212.642 115.261 213.622 114.477 214.406C113.693 215.19 112.726 215.582 111.578 215.582ZM147.651 185.838L134.921 215.246H128.199L115.512 185.838H122.864L131.812 206.844L140.887 185.838H147.651ZM177.498 185.838V215.246H171.91L157.248 197.391V215.246H150.526V185.838H156.156L170.776 203.693V185.838H177.498Z" fill="#253646"/>
<path d="M159.504 36.0176L152.397 43.1245C170.707 70.7472 168.501 107.402 146.34 132.714C137.728 124.102 140.914 127.288 132.336 118.71C115.462 138.981 86.7537 144.092 64.1375 131.419L56.9255 138.631C80.417 153.16 110.945 151.094 132.371 132.714C140.984 141.327 137.798 138.141 146.375 146.718C178.339 118.29 183.73 70.7472 159.504 36.0176Z" fill="#EC1C24"/>
<path d="M139.373 28.2105C130.761 36.8229 133.946 33.637 125.369 42.2144C145.675 59.1591 150.716 87.867 138.043 110.448L145.255 117.66C159.819 94.0987 157.683 63.5703 139.338 42.2144C147.915 33.637 144.729 36.8229 153.342 28.2105C124.914 -3.71829 77.4058 -9.1798 42.6412 15.0819L49.7482 22.1889C77.4058 3.8438 114.096 6.08442 139.373 28.2105Z" fill="#FF7F22"/>
<path d="M41.8361 139.716C50.4485 131.104 47.2626 134.29 55.84 125.712C35.5694 108.803 30.493 80.0948 43.1665 57.4786L35.9545 50.2666C21.3905 73.8281 23.5261 104.322 41.8711 125.712C33.2938 134.29 36.4446 131.139 27.8673 139.716C56.3301 171.68 103.803 177.107 138.568 152.88L131.461 145.773C103.663 164.188 67.0081 161.737 41.8361 139.716Z" fill="#37B34A"/>
<path d="M34.8693 35.2125C39.2105 39.5537 44.532 44.8752 48.8732 49.2164C65.7828 28.9107 94.5258 23.8694 117.107 36.5429L124.319 29.3309C100.757 14.7668 70.2641 16.9024 48.8732 35.2475C40.2608 26.6351 43.4467 29.821 34.8693 21.2436C2.94048 49.6365 -2.52102 97.1796 21.7057 131.944L28.8126 124.837C10.5026 97.2146 12.7082 60.5245 34.8693 35.2125Z" fill="#1B75BB"/>
<path fill-rule="evenodd" clip-rule="evenodd" d="M90.675 129.536C115.811 129.536 136.188 109.159 136.188 84.0233C136.188 58.8874 115.811 38.5107 90.675 38.5107C65.5391 38.5107 45.1625 58.8874 45.1625 84.0233C45.1625 109.159 65.5391 129.536 90.675 129.536ZM90.6751 119.032C110.01 119.032 125.685 103.358 125.685 84.0228C125.685 64.6875 110.01 49.0131 90.6751 49.0131C71.3398 49.0131 55.6655 64.6875 55.6655 84.0228C55.6655 103.358 71.3398 119.032 90.6751 119.032Z" fill="#253646"/>
</svg>
