<svg width="16" height="16" viewBox="0 0 16 16" fill="none" xmlns="http://www.w3.org/2000/svg">
<path d="M0 8C0 6.91525 0.210343 5.87744 0.63103 4.88657C1.05172 3.8957 1.61843 3.04563 2.33116 2.33638C3.04389 1.62712 3.89222 1.06041 4.87614 0.636245C5.86006 0.212082 6.89439 0 7.97914 0C9.07084 0 10.1104 0.212082 11.0978 0.636245C12.0852 1.06041 12.937 1.62886 13.6532 2.34159C14.3694 3.05432 14.9396 3.90439 15.3638 4.89179C15.7879 5.87918 16 6.91178 16 7.98957C16 9.07432 15.7879 10.1121 15.3638 11.103C14.9396 12.0939 14.3694 12.9474 13.6532 13.6636C12.937 14.3798 12.0852 14.9483 11.0978 15.369C10.1104 15.7897 9.07432 16 7.98957 16C6.91178 16 5.87918 15.7897 4.89179 15.369C3.90439 14.9483 3.05432 14.3816 2.34159 13.6688C1.62886 12.9561 1.06041 12.106 0.636245 11.1186C0.212082 10.1312 0 9.0917 0 8ZM1.75228 8C1.75228 9.12647 2.03216 10.1678 2.59192 11.1239C3.15167 12.08 3.91134 12.8344 4.87093 13.3872C5.83051 13.94 6.87006 14.2164 7.98957 14.2164C8.83094 14.2164 9.63755 14.0513 10.4094 13.721C11.1812 13.3907 11.847 12.9474 12.4068 12.3911C12.9665 11.8349 13.4116 11.1725 13.7419 10.4042C14.0721 9.63581 14.2373 8.83094 14.2373 7.98957C14.2373 6.29292 13.6184 4.82573 12.3807 3.58801C11.143 2.36419 9.67579 1.75228 7.97914 1.75228C7.13777 1.75228 6.3329 1.91917 5.56454 2.25293C4.79618 2.5867 4.13385 3.03173 3.57757 3.58801C3.0213 4.14429 2.57801 4.80834 2.24772 5.58018C1.91743 6.35202 1.75228 7.15863 1.75228 8ZM4.53716 8.08344C4.53716 8.03477 4.57888 8 4.66232 7.97914L10.9622 5.37158C11.0387 5.35767 11.096 5.36984 11.1343 5.40808C11.1725 5.44633 11.1777 5.50369 11.1499 5.58018L8.56323 11.8801C8.54933 11.9565 8.51108 11.9948 8.4485 11.9948C8.37201 11.9948 8.31638 11.9565 8.28162 11.8801L7.2073 9.4811C7.14472 9.38375 7.09605 9.33159 7.06128 9.32464L4.66232 8.2399C4.57888 8.20513 4.53716 8.15298 4.53716 8.08344Z" fill="#FF7F22"/>
</svg>
