<svg height="512pt" viewBox="0 0 512 512" width="512pt" xmlns="http://www.w3.org/2000/svg"><path d="m512 66v120h-120v-40h50.023438c-38.390626-65.347656-108.171876-106-186.023438-106-119.101562 0-216 96.898438-216 216h-40c0-68.378906 26.628906-132.667969 74.980469-181.019531 48.351562-48.351563 112.640625-74.980469 181.019531-74.980469 52.589844 0 103.121094 15.832031 146.132812 45.78125 28.132813 19.589844 51.761719 44.269531 69.867188 72.703125v-52.484375zm-255 406c-77.851562 0-147.632812-40.652344-186.023438-106h48.023438v-40h-119v120h40v-54.0625c18.230469 29.101562 42.214844 54.332031 70.867188 74.28125 43.011718 29.949219 93.542968 45.78125 146.132812 45.78125 68.339844 0 132.464844-26.644531 180.5625-75.023438 48-48.285156 74.4375-112.554687 74.4375-180.976562h-40c0 119.101562-96.449219 216-215 216zm20-248c0-11.046875-8.953125-20-20-20s-20 8.953125-20 20 8.953125 20 20 20 20-8.953125 20-20zm-81.6875 109.160156c-32.722656-41.375-49.3125-77.558594-49.3125-107.554687v-2.753907c0-60.625 49.347656-109.949218 110-109.949218s110 49.324218 110 109.949218v2.753907c0 29.996093-16.589844 66.179687-49.3125 107.554687-23.199219 29.332032-46.148438 50.632813-47.113281 51.527344l-13.574219 12.546875-13.574219-12.546875c-.96875-.894531-23.914062-22.195312-47.113281-51.527344zm31.050781-25.226562c10.695313 13.566406 21.503907 25.414062 29.636719 33.871094 8.132812-8.457032 18.9375-20.304688 29.636719-33.871094 26.027343-32.996094 40.363281-62.238282 40.363281-82.328125v-2.753907c0-38.570312-31.402344-69.949218-70-69.949218s-70 31.378906-70 69.949218v2.753907c0 20.089843 14.335938 49.332031 40.363281 82.328125zm0 0"/></svg>