<svg width="17" height="20" viewBox="0 0 17 20" fill="none" xmlns="http://www.w3.org/2000/svg">
<path fill-rule="evenodd" clip-rule="evenodd" d="M13.0204 4.49766C13.5849 5.06197 14.0326 5.73194 14.3381 6.46932C14.6436 7.2067 14.8009 7.99704 14.8009 8.7952C14.8009 9.59336 14.6436 10.3837 14.3381 11.1211C14.0326 11.8585 13.5849 12.5284 13.0204 13.0927L8.72289 17.3879L4.42535 13.0915C3.86099 12.5272 3.41331 11.8572 3.10788 11.1198C2.80245 10.3824 2.64525 9.59211 2.64525 8.79398C2.64525 7.99586 2.80245 7.20555 3.10788 6.46817C3.41331 5.7308 3.86099 5.0608 4.42535 4.49644C4.98971 3.93208 5.65971 3.48441 6.39708 3.17898C7.13445 2.87355 7.92476 2.71634 8.72289 2.71634C9.52102 2.71634 10.3113 2.87355 11.0487 3.17898C11.7861 3.48441 12.4561 3.93208 13.0204 4.49644V4.49766ZM14.3087 14.381C15.4136 13.2762 16.1661 11.8686 16.4709 10.3362C16.7758 8.80372 16.6194 7.21528 16.0215 5.77172C15.4236 4.32817 14.411 3.09434 13.1119 2.22625C11.8128 1.35817 10.2854 0.894836 8.72289 0.894836C7.16041 0.894836 5.63302 1.35817 4.33388 2.22625C3.03473 3.09434 2.02219 4.32817 1.42428 5.77172C0.826377 7.21528 0.669972 8.80372 0.974845 10.3362C1.27972 11.8686 2.03218 13.2762 3.13706 14.381L7.43339 18.6786C7.60269 18.848 7.80371 18.9824 8.02497 19.0741C8.24623 19.1658 8.48339 19.2129 8.72289 19.2129C8.9624 19.2129 9.19955 19.1658 9.42081 19.0741C9.64207 18.9824 9.84309 18.848 10.0124 18.6786L14.3087 14.381ZM8.72289 11.2259C9.36756 11.2259 9.98583 10.9698 10.4417 10.514C10.8975 10.0581 11.1536 9.43987 11.1536 8.7952C11.1536 8.15053 10.8975 7.53226 10.4417 7.07641C9.98583 6.62056 9.36756 6.36446 8.72289 6.36446C8.07822 6.36446 7.45995 6.62056 7.0041 7.07641C6.54825 7.53226 6.29216 8.15053 6.29216 8.7952C6.29216 9.43987 6.54825 10.0581 7.0041 10.514C7.45995 10.9698 8.07822 11.2259 8.72289 11.2259Z" fill="#282828" stroke="#282828" stroke-width="0.607684"/>
</svg>
