<svg width="28" height="28" viewBox="0 0 28 28" fill="none" xmlns="http://www.w3.org/2000/svg">
<path d="M13.9999 16.3333C16.5736 16.3333 18.6666 14.2403 18.6666 11.6667C18.6666 9.093 16.5736 7 13.9999 7C11.4263 7 9.33325 9.093 9.33325 11.6667C9.33325 14.2403 11.4263 16.3333 13.9999 16.3333ZM13.9999 9.33333C15.2868 9.33333 16.3333 10.3798 16.3333 11.6667C16.3333 12.9535 15.2868 14 13.9999 14C12.7131 14 11.6666 12.9535 11.6666 11.6667C11.6666 10.3798 12.7131 9.33333 13.9999 9.33333Z" fill="white"/>
<path d="M13.3233 25.4497C13.5207 25.5907 13.7573 25.6665 13.9999 25.6665C14.2426 25.6665 14.4792 25.5907 14.6766 25.4497C15.0313 25.1988 23.3671 19.18 23.3333 11.6667C23.3333 6.5205 19.1461 2.33334 13.9999 2.33334C8.85377 2.33334 4.66661 6.5205 4.66661 11.6608C4.63277 19.18 12.9686 25.1988 13.3233 25.4497ZM13.9999 4.66667C17.8604 4.66667 20.9999 7.80617 20.9999 11.6725C21.0244 16.8502 15.8806 21.4993 13.9999 23.0242C12.1204 21.4982 6.97544 16.8478 6.99994 11.6667C6.99994 7.80617 10.1394 4.66667 13.9999 4.66667Z" fill="white"/>
</svg>
