<svg width="59" height="59" viewBox="0 0 59 59" fill="none" xmlns="http://www.w3.org/2000/svg">
<rect width="59" height="59" rx="10" fill="#FFD94F"/>
<path d="M25 36.6667H25.0167M25 18.3333H21.6667C20.7826 18.3333 19.9348 18.6845 19.3096 19.3096C18.6845 19.9348 18.3333 20.7826 18.3333 21.6667V41.6667C18.3333 42.5507 18.6845 43.3986 19.3096 44.0237C19.9348 44.6488 20.7826 45 21.6667 45H38.3333C39.2174 45 40.0652 44.6488 40.6904 44.0237C41.3155 43.3986 41.6667 42.5507 41.6667 41.6667V21.6667C41.6667 20.7826 41.3155 19.9348 40.6904 19.3096C40.0652 18.6845 39.2174 18.3333 38.3333 18.3333H35H25ZM25 18.3333C25 19.2174 25.3512 20.0652 25.9763 20.6904C26.6014 21.3155 27.4493 21.6667 28.3333 21.6667H31.6667C32.5507 21.6667 33.3986 21.3155 34.0237 20.6904C34.6488 20.0652 35 19.2174 35 18.3333H25ZM25 18.3333C25 17.4493 25.3512 16.6014 25.9763 15.9763C26.6014 15.3512 27.4493 15 28.3333 15H31.6667C32.5507 15 33.3986 15.3512 34.0237 15.9763C34.6488 16.6014 35 17.4493 35 18.3333H25ZM30 30H35H30ZM30 36.6667H35H30ZM25 30H25.0167H25Z" stroke="white" stroke-width="3.33333" stroke-linecap="round" stroke-linejoin="round"/>
</svg>
