<svg width="19" height="21" viewBox="0 0 19 21" fill="none" xmlns="http://www.w3.org/2000/svg">
<path d="M12.5263 0H2.08772C1.53402 0 1.003 0.245833 0.611479 0.683417C0.219955 1.121 0 1.71449 0 2.33333V18.6667C0 19.2855 0.219955 19.879 0.611479 20.3166C1.003 20.7542 1.53402 21 2.08772 21H16.7018C17.2555 21 17.7865 20.7542 18.178 20.3166C18.5695 19.879 18.7895 19.2855 18.7895 18.6667V7L12.5263 0ZM16.7018 18.6667H2.08772V2.33333H11.4825V8.16667H16.7018V18.6667ZM14.614 12.8333H4.17544V10.5H14.614V12.8333ZM11.4825 16.3333H4.17544V14H11.4825" fill="white"/>
</svg>
