<svg width="25" height="30" viewBox="0 0 25 30" fill="none" xmlns="http://www.w3.org/2000/svg">
<path d="M12.2917 0.833374C5.6475 0.833374 0.25 6.23087 0.25 12.875C0.25 19.5192 5.6475 24.9167 12.2917 24.9167H13V29.1667C19.885 25.8517 24.3333 19.25 24.3333 12.875C24.3333 6.23087 18.9358 0.833374 12.2917 0.833374ZM13.7083 21.375H10.875V18.5417H13.7083V21.375ZM14.275 14.6034C14.2608 14.6175 14.2467 14.6459 14.2325 14.6742C14.1617 14.7875 14.0908 14.9009 14.0342 15.0142C14.0058 15.0567 13.9917 15.1134 13.9775 15.17C13.935 15.2692 13.8925 15.3684 13.8642 15.4675C13.765 15.765 13.7225 16.0767 13.7225 16.4309H10.875C10.875 15.7084 10.9883 15.0992 11.1583 14.5892C11.1583 14.575 11.1583 14.5609 11.1725 14.5467C11.1867 14.49 11.2292 14.4617 11.2433 14.405C11.3283 14.1784 11.4275 13.98 11.555 13.7817C11.5975 13.7109 11.6542 13.64 11.6967 13.5692C11.7392 13.5125 11.7675 13.4417 11.81 13.3992L11.8242 13.4134C13.0142 11.855 14.955 11.3734 15.1108 9.61671C15.2383 8.22837 14.2467 6.88254 12.8867 6.59921C11.4133 6.28754 10.0817 7.15171 9.62833 8.41254C9.43 8.92254 8.9625 9.33337 8.38167 9.33337H8.09833C7.24833 9.33337 6.625 8.49754 6.86583 7.67587C7.26279 6.37314 8.11542 5.25682 9.26779 4.53106C10.4202 3.80529 11.7953 3.51859 13.1417 3.72337C15.5358 4.07754 17.4483 6.04671 17.8592 8.44087C18.4825 11.8975 15.55 12.7334 14.275 14.6034Z" fill="#FF7F22"/>
</svg>
