<svg width="28" height="28" viewBox="0 0 28 28" fill="none" xmlns="http://www.w3.org/2000/svg">
<path d="M12.6 18.2H12.5286C12.1762 18.2 11.8383 18.06 11.5891 17.8109C11.34 17.5617 11.2 17.2238 11.2 16.8714C11.2 16.5001 11.0525 16.144 10.7899 15.8814C10.5274 15.6189 10.1713 15.4714 9.8 15.4714C9.4287 15.4714 9.0726 15.6189 8.81005 15.8814C8.5475 16.144 8.4 16.5001 8.4 16.8714C8.4 17.9664 8.83498 19.0165 9.60924 19.7908C10.3835 20.565 11.4336 21 12.5286 21H12.6V22.4C12.6 22.7713 12.7475 23.1274 13.0101 23.3899C13.2726 23.6525 13.6287 23.8 14 23.8C14.3713 23.8 14.7274 23.6525 14.9899 23.3899C15.2525 23.1274 15.4 22.7713 15.4 22.4V21C16.5139 21 17.5822 20.5575 18.3698 19.7698C19.1575 18.9822 19.6 17.9139 19.6 16.8C19.6 15.6861 19.1575 14.6178 18.3698 13.8302C17.5822 13.0425 16.5139 12.6 15.4 12.6V9.8H15.4308C16.1868 9.8 16.8 10.4132 16.8 11.1692C16.8 11.5405 16.9475 11.8966 17.2101 12.1592C17.4726 12.4217 17.8287 12.5692 18.2 12.5692C18.5713 12.5692 18.9274 12.4217 19.1899 12.1592C19.4525 11.8966 19.6 11.5405 19.6 11.1692C19.6 10.0635 19.1607 9.00301 18.3789 8.22113C17.597 7.43925 16.5365 7 15.4308 7H15.4V5.6C15.4 5.2287 15.2525 4.8726 14.9899 4.61005C14.7274 4.3475 14.3713 4.2 14 4.2C13.6287 4.2 13.2726 4.3475 13.0101 4.61005C12.7475 4.8726 12.6 5.2287 12.6 5.6V7C11.4861 7 10.4178 7.4425 9.63015 8.23015C8.8425 9.01781 8.4 10.0861 8.4 11.2C8.4 12.3139 8.8425 13.3822 9.63015 14.1698C10.4178 14.9575 11.4861 15.4 12.6 15.4V18.2ZM15.4 18.2V15.4C15.7713 15.4 16.1274 15.5475 16.3899 15.8101C16.6525 16.0726 16.8 16.4287 16.8 16.8C16.8 17.1713 16.6525 17.5274 16.3899 17.7899C16.1274 18.0525 15.7713 18.2 15.4 18.2ZM12.6 9.8V12.6C12.2287 12.6 11.8726 12.4525 11.6101 12.1899C11.3475 11.9274 11.2 11.5713 11.2 11.2C11.2 10.8287 11.3475 10.4726 11.6101 10.2101C11.8726 9.9475 12.2287 9.8 12.6 9.8ZM14 28C6.2678 28 0 21.7322 0 14C0 6.2678 6.2678 0 14 0C21.7322 0 28 6.2678 28 14C28 21.7322 21.7322 28 14 28Z" fill="#FF7F22"/>
</svg>
