<svg width="45" height="45" viewBox="0 0 45 45" fill="none" xmlns="http://www.w3.org/2000/svg">
<path d="M20.1226 28.6215H20.0142C19.4794 28.6215 18.9666 28.4091 18.5884 28.0309C18.2103 27.6528 17.9979 27.1399 17.9979 26.6051C17.9979 26.0416 17.774 25.5012 17.3755 25.1027C16.9771 24.7043 16.4366 24.4804 15.8731 24.4804C15.3096 24.4804 14.7692 24.7043 14.3707 25.1027C13.9722 25.5012 13.7484 26.0416 13.7484 26.6051C13.7484 28.2669 14.4085 29.8607 15.5836 31.0357C16.7587 32.2108 18.3524 32.871 20.0142 32.871H20.1226V34.9957C20.1226 35.5592 20.3464 36.0997 20.7449 36.4981C21.1434 36.8966 21.6838 37.1204 22.2473 37.1204C22.8108 37.1204 23.3513 36.8966 23.7497 36.4981C24.1482 36.0997 24.372 35.5592 24.372 34.9957V32.871C26.0626 32.871 27.6839 32.1994 28.8793 31.004C30.0747 29.8086 30.7462 28.1873 30.7462 26.4968C30.7462 24.8062 30.0747 23.1849 28.8793 21.9895C27.6839 20.7941 26.0626 20.1226 24.372 20.1226V15.8731H24.4188C25.5661 15.8731 26.4968 16.8038 26.4968 17.9511C26.4968 18.5146 26.7206 19.0551 27.1191 19.4535C27.5176 19.852 28.058 20.0758 28.6215 20.0758C29.185 20.0758 29.7255 19.852 30.1239 19.4535C30.5224 19.0551 30.7462 18.5146 30.7462 17.9511C30.7462 16.273 30.0796 14.6636 28.893 13.4769C27.7063 12.2903 26.0969 11.6237 24.4188 11.6237H24.372V9.49892C24.372 8.93541 24.1482 8.39498 23.7497 7.99651C23.3513 7.59805 22.8108 7.37419 22.2473 7.37419C21.6838 7.37419 21.1434 7.59805 20.7449 7.99651C20.3464 8.39498 20.1226 8.93541 20.1226 9.49892V11.6237C18.432 11.6237 16.8107 12.2952 15.6153 13.4906C14.42 14.686 13.7484 16.3073 13.7484 17.9979C13.7484 19.6884 14.42 21.3097 15.6153 22.5051C16.8107 23.7005 18.432 24.372 20.1226 24.372V28.6215ZM24.372 28.6215V24.372C24.9356 24.372 25.476 24.5959 25.8745 24.9944C26.2729 25.3928 26.4968 25.9333 26.4968 26.4968C26.4968 27.0603 26.2729 27.6007 25.8745 27.9992C25.476 28.3977 24.9356 28.6215 24.372 28.6215ZM20.1226 15.8731V20.1226C19.5591 20.1226 19.0186 19.8987 18.6202 19.5003C18.2217 19.1018 17.9979 18.5614 17.9979 17.9979C17.9979 17.4343 18.2217 16.8939 18.6202 16.4954C19.0186 16.097 19.5591 15.8731 20.1226 15.8731ZM22.2473 43.4946C10.5124 43.4946 1 33.9822 1 22.2473C1 10.5124 10.5124 1 22.2473 1C33.9822 1 43.4946 10.5124 43.4946 22.2473C43.4946 33.9822 33.9822 43.4946 22.2473 43.4946Z" fill="#FFD94F" stroke="#FFD94F" stroke-width="1.2"/>
</svg>
