<svg width="77" height="75" viewBox="0 0 77 75" fill="none" xmlns="http://www.w3.org/2000/svg">
<path fill-rule="evenodd" clip-rule="evenodd" d="M35.5834 64.697C53.449 64.697 67.9319 50.2141 67.9319 32.3485C67.9319 14.4829 53.449 0 35.5834 0C17.7178 0 3.23486 14.4829 3.23486 32.3485C3.23486 50.2141 17.7178 64.697 35.5834 64.697Z" fill="#EDFAEF"/>
<path d="M4.15912 55.4543H24.9546V52.6815H4.73308L2.36656 50.315L0.406235 52.2753L3.17896 55.0481C3.43821 55.3087 3.79035 55.4543 4.15912 55.4543Z" fill="#686868"/>
<path d="M23.5679 65.1592H16.636V61.0001H23.5679" fill="#686868"/>
<path d="M42.9774 38.8183L54.0683 41.591L56.9741 38.9514L55.4547 37.4319L47.1365 34.6592L46.844 34.0741C45.3245 31.0338 42.2163 29.1137 38.8183 29.1137" fill="#FF9D56"/>
<path d="M42.9772 52.6816L44.3636 60.9998H51.1277C53.0103 60.9998 54.8168 60.2512 56.1477 58.9203C57.4786 57.5894 58.2272 55.7829 58.2272 53.9003C58.2272 52.1881 57.828 50.4981 57.0627 48.9662L54.0681 42.9771V41.3245C54.0681 39.9396 55.1897 38.818 56.5747 38.818C57.577 38.818 58.4837 39.4155 58.8788 40.3374L66.5454 58.2271V66.5453H22.1817C22.1817 62.8548 22.4867 59.1698 23.094 55.5292L23.5681 52.6816" fill="#40C15A"/>
<path d="M62.3865 63.7726H31.8864C30.3545 63.7726 29.1137 62.5318 29.1137 60.9998V52.6816H42.9773L44.3637 60.9998H51.1278C53.0105 60.9998 54.8169 60.2512 56.1478 58.9203C57.4787 57.5894 58.2274 55.7829 58.2274 53.9003C58.2274 52.1881 57.8281 50.4981 57.0628 48.9662L54.0683 42.9771V41.3245C54.0683 39.9396 55.1898 38.818 56.5748 38.818C57.5772 38.818 58.4838 39.4155 58.8789 40.3374L65.1592 54.9927V60.9998C65.1592 62.5318 63.9184 63.7726 62.3865 63.7726Z" fill="#40C15A"/>
<path d="M56.8406 59.6137H55.3017C55.5956 59.3988 55.8867 59.1812 56.1474 58.9205C57.4783 57.5896 58.2269 55.7832 58.2269 53.9005C58.2269 52.1884 57.8276 50.4984 57.0624 48.9664L54.761 44.3637H56.8406C58.3725 44.3637 59.6133 45.6045 59.6133 47.1364V56.841C59.6133 58.3729 58.3725 59.6137 56.8406 59.6137Z" fill="#40C15A"/>
<path d="M27.9825 66.5453C27.8273 66.9807 27.7274 67.4423 27.7274 67.9317C27.7274 70.2289 29.5893 72.0908 31.8865 72.0908C34.1837 72.0908 36.0456 70.2289 36.0456 67.9317C36.0456 67.4423 35.9458 66.9807 35.7905 66.5453H38.8184V67.9317C38.8184 71.7595 35.7143 74.8635 31.8865 74.8635C28.0588 74.8635 24.9547 71.7595 24.9547 67.9317V66.5453H27.9825Z" fill="#686868"/>
<path d="M62.3861 67.9319C62.3861 70.2292 64.248 72.091 66.5452 72.091C68.8424 72.091 70.7043 70.2292 70.7043 67.9319H73.4771C73.4771 71.7597 70.373 74.8638 66.5452 74.8638C62.7175 74.8638 59.6134 71.7597 59.6134 67.9319H62.3861Z" fill="#686868"/>
<path d="M6.93194 33.2728H29.1138V49.9092H6.93194V33.2728Z" fill="#FF7F22"/>
<path d="M29.1138 33.2728V47.1365H12.4774C10.9455 47.1365 9.70467 45.8957 9.70467 44.3637V33.2728H29.1138Z" fill="#FF9D56"/>
<path d="M56.8409 67.9322C56.8409 62.5725 61.1858 58.2277 66.5454 58.2277C71.9051 58.2277 76.25 62.5725 76.25 67.9322H56.8409Z" fill="#40C15A"/>
<path d="M59.7245 67.9317C60.3983 63.2306 64.4312 59.6135 69.3182 59.6135C70.3164 59.6135 71.2799 59.7646 72.1866 60.0447C74.6432 61.8054 76.25 64.6779 76.25 67.9317H59.7245Z" fill="#40C15A"/>
<path d="M40.2043 24.9543C35.6103 24.9543 31.8861 21.2301 31.8861 16.6361C31.8861 12.0421 35.6103 8.31793 40.2043 8.31793C44.7983 8.31793 48.5225 12.0421 48.5225 16.6361C48.5225 21.2301 44.7983 24.9543 40.2043 24.9543Z" fill="#FBE1CA"/>
<path d="M43.5024 15.7752L42.453 14.7257C41.9012 14.1739 41.1539 13.8648 40.3734 13.8648C38.7486 13.8634 37.4315 15.1804 37.4315 16.8039V17.6925C37.4315 19.5932 36.3571 21.3317 34.6574 22.1816L34.218 22.402C32.7761 20.9061 31.8861 18.8765 31.8861 16.6361C31.8861 12.0417 35.6099 8.31793 40.2043 8.31793C44.7987 8.31793 48.5225 12.0417 48.5225 16.6361H45.582C44.8015 16.6361 44.0528 16.3256 43.5024 15.7752Z" fill="#FF7F22"/>
<path d="M48.523 61.0001L47.1367 52.6819L40.0676 50.662C38.3665 50.1754 36.8928 49.1009 35.9113 47.6286C35.0947 46.4031 34.6594 44.964 34.6594 43.4917V29.1137H38.8185C41.4165 30.8453 42.9776 33.7622 42.9776 36.8857V44.3637L52.6821 48.5228V61.0001" fill="#282828"/>
<path d="M67.9316 48.5228V37.4319C64.8692 37.4319 62.3862 39.9149 62.3862 42.9773C62.3862 46.0398 64.8692 48.5228 67.9316 48.5228Z" fill="#40C15A"/>
<path d="M42.9775 36.8857V44.3637H34.7231C34.6899 44.0754 34.6594 43.7856 34.6594 43.4917V29.1137H38.8184C41.4165 30.8453 42.9775 33.7622 42.9775 36.8857Z" fill="#FF7F22"/>
<path d="M42.9775 52.6819C42.1277 54.3816 40.3906 55.4546 38.4913 55.4546H28.0547C26.1554 55.4546 24.4183 54.3816 23.5684 52.6819C26.2802 50.8741 29.4674 49.9092 32.7268 49.9092H33.8206C37.0786 49.9092 40.2658 50.8741 42.9775 52.6819Z" fill="#686868"/>
<path d="M27.7271 51.2955V50.6911C29.3353 50.1795 31.0197 49.9092 32.7264 49.9092H33.8202C37.0795 49.9092 40.2654 50.8741 42.9785 52.6819H29.1149C28.3482 52.6819 27.7271 52.0608 27.7271 51.2955Z" fill="#686868"/>
<path d="M9.70419 72.0911C7.40718 72.0911 5.54509 70.229 5.54509 67.932C5.54509 65.635 7.40718 63.7729 9.70419 63.7729C12.0012 63.7729 13.8633 65.635 13.8633 67.932C13.8633 70.229 12.0012 72.0911 9.70419 72.0911Z" fill="#E9EAE9"/>
<path d="M5.54536 69.3186C2.48269 69.3186 -9.53674e-05 66.8358 -9.53674e-05 63.7731C-9.53674e-05 60.7104 2.48269 58.2277 5.54536 58.2277C8.60803 58.2277 11.0908 60.7104 11.0908 63.7731C11.0908 66.8358 8.60803 69.3186 5.54536 69.3186Z" fill="#CAE9D0"/>
</svg>
