<svg width="26" height="26" viewBox="0 0 26 26" fill="none" xmlns="http://www.w3.org/2000/svg">
<path d="M25.0967 15.4827L25.0701 15.4612L23.2894 14.0647C23.1766 13.9755 23.0866 13.8608 23.0268 13.7301C22.967 13.5993 22.939 13.4563 22.9452 13.3126V12.6603C22.9396 12.5176 22.9679 12.3756 23.0278 12.2459C23.0877 12.1162 23.1776 12.0026 23.29 11.9144L25.0701 10.5174L25.0967 10.4959C25.3712 10.2672 25.5554 9.94832 25.6164 9.59624C25.6774 9.24416 25.6112 8.88187 25.4296 8.57415L23.0197 4.40444C23.0169 4.40051 23.0145 4.39636 23.0124 4.39203C22.8298 4.08856 22.5467 3.85863 22.2122 3.74216C21.8777 3.62569 21.513 3.63003 21.1814 3.75444L21.1617 3.76178L19.0684 4.60418C18.9362 4.6576 18.7933 4.67886 18.6514 4.6662C18.5094 4.65355 18.3725 4.60734 18.2519 4.53139C18.0668 4.41479 17.8788 4.30457 17.6877 4.20075C17.5638 4.13357 17.4574 4.03821 17.3771 3.92236C17.2969 3.80651 17.2449 3.67342 17.2256 3.53382L16.9102 1.30001L16.9034 1.25939C16.8347 0.913397 16.6491 0.601586 16.3776 0.376355C16.1061 0.151125 15.7654 0.0262026 15.4127 0.022583H10.5873C10.2296 0.0237276 9.88382 0.151069 9.61081 0.382173C9.3378 0.613277 9.15511 0.933316 9.09492 1.28591L9.08984 1.31751L8.77556 3.55583C8.75629 3.69503 8.70478 3.8278 8.62514 3.94359C8.5455 4.05937 8.43993 4.15496 8.31684 4.22276C8.1252 4.32598 7.93702 4.4355 7.7526 4.55114C7.63223 4.62663 7.49567 4.67248 7.35413 4.68494C7.21259 4.6974 7.07012 4.6761 6.93841 4.6228L4.8434 3.77645L4.82365 3.76855C4.49158 3.644 4.12635 3.63982 3.79151 3.75673C3.45667 3.87363 3.17341 4.10423 2.99102 4.40839L2.98368 4.4208L0.570443 8.59333C0.38855 8.90137 0.322162 9.26406 0.383151 9.61656C0.44414 9.96905 0.628528 10.2884 0.903342 10.5174L0.929861 10.5388L2.71059 11.9353C2.82336 12.0245 2.91336 12.1392 2.97319 12.2699C3.03302 12.4007 3.06098 12.5438 3.05477 12.6874V13.3397C3.06043 13.4824 3.03212 13.6245 2.97219 13.7541C2.91226 13.8838 2.82241 13.9974 2.71003 14.0856L0.929861 15.4827L0.903342 15.5041C0.6288 15.7328 0.444562 16.0517 0.383573 16.4038C0.322585 16.7559 0.388823 17.1182 0.570443 17.4259L2.9803 21.5956C2.98307 21.5995 2.98552 21.6037 2.98763 21.608C3.17023 21.9115 3.45335 22.1414 3.78781 22.2579C4.12228 22.3743 4.48698 22.37 4.81858 22.2456L4.83832 22.2383L6.92995 21.3958C7.06207 21.3424 7.205 21.3212 7.34695 21.3338C7.4889 21.3465 7.62581 21.3927 7.7464 21.4686C7.93147 21.5856 8.11955 21.6958 8.31063 21.7993C8.43453 21.8665 8.5409 21.9618 8.62117 22.0777C8.70144 22.1935 8.75336 22.3266 8.77274 22.4662L9.08646 24.7L9.09323 24.7406C9.16201 25.0872 9.34818 25.3994 9.62034 25.6247C9.8925 25.85 10.234 25.9746 10.5873 25.9774H15.4127C15.7704 25.9763 16.1162 25.849 16.3892 25.6179C16.6622 25.3867 16.8449 25.0667 16.9051 24.7141L16.9102 24.6825L17.2244 22.4442C17.244 22.3047 17.296 22.1718 17.3761 22.056C17.4562 21.9402 17.5624 21.8447 17.686 21.7773C17.8789 21.6735 18.0674 21.5634 18.2502 21.4489C18.3706 21.3734 18.5072 21.3275 18.6487 21.3151C18.7902 21.3026 18.9327 21.3239 19.0644 21.3772L21.1594 22.2208L21.1792 22.2287C21.5112 22.3534 21.8765 22.3577 22.2114 22.2408C22.5463 22.1239 22.8296 21.8931 23.0118 21.5888C23.014 21.5846 23.0165 21.5804 23.0191 21.5764L25.429 17.4073C25.6112 17.0993 25.6778 16.7365 25.617 16.3838C25.5561 16.0312 25.3716 15.7117 25.0967 15.4827ZM17.5088 13.2122C17.4677 14.0859 17.1736 14.9289 16.6623 15.6387C16.151 16.3484 15.4445 16.8943 14.6287 17.2099C13.8129 17.5255 12.923 17.5974 12.0671 17.4166C11.2113 17.2358 10.4264 16.8103 9.80791 16.1917C9.18942 15.5732 8.76398 14.7882 8.58333 13.9324C8.40268 13.0765 8.47459 12.1866 8.79033 11.3708C9.10607 10.5551 9.65203 9.84862 10.3618 9.33739C11.0716 8.82617 11.9146 8.53219 12.7884 8.4912C13.4157 8.46358 14.0419 8.5668 14.6271 8.79429C15.2124 9.02177 15.7439 9.36855 16.1878 9.81257C16.6318 10.2566 16.9785 10.7881 17.2059 11.3734C17.4334 11.9587 17.5365 12.5849 17.5088 13.2122Z" fill="#FF7F22"/>
</svg>
