<svg width="48" height="48" viewBox="0 0 48 48" fill="none" xmlns="http://www.w3.org/2000/svg">
<g clip-path="url(#clip0)">
<path fill-rule="evenodd" clip-rule="evenodd" d="M22.2704 41.4814C33.517 41.4814 42.6341 32.1955 42.6341 20.7407C42.6341 9.28594 33.517 0 22.2704 0C11.0239 0 1.90674 9.28594 1.90674 20.7407C1.90674 32.1955 11.0239 41.4814 22.2704 41.4814Z" fill="#FCCEAD"/>
<path d="M2.4884 35.5554H15.5793V33.7776H2.84971L1.35996 32.2603L0.125921 33.5171L1.87138 35.2949C2.03458 35.462 2.25626 35.5554 2.4884 35.5554Z" fill="#686868"/>
<path d="M14.7068 41.7775H10.3431V39.1108H14.7068" fill="#686868"/>
<path d="M26.9248 24.889L33.9066 26.6667L35.7358 24.9743L34.7793 24.0001L29.543 22.2223L29.3588 21.8472C28.4023 19.8979 26.4456 18.6667 24.3066 18.6667" fill="#FF9D56"/>
<path d="M26.9248 33.778L27.7976 39.1114H32.0556C33.2408 39.1114 34.3779 38.6314 35.2158 37.778C36.0536 36.9247 36.5249 35.7665 36.5249 34.5594C36.5249 33.4616 36.2735 32.378 35.7918 31.3958L33.9067 27.5558V26.4963C33.9067 25.6083 34.6127 24.8892 35.4846 24.8892C36.1155 24.8892 36.6863 25.2723 36.935 25.8634L41.7612 37.3336V42.6669H13.8339C13.8339 40.3007 14.0259 37.938 14.4081 35.6038L14.7066 33.778" fill="#40C15A"/>
<path d="M39.1432 40.8891H19.9432C18.9788 40.8891 18.1977 40.0936 18.1977 39.1114V33.778H26.925L27.7977 39.1114H32.0558C33.2409 39.1114 34.3781 38.6314 35.2159 37.778C36.0538 36.9247 36.525 35.7665 36.525 34.5594C36.525 33.4616 36.2737 32.378 35.7919 31.3958L33.9068 27.5558V26.4963C33.9068 25.6083 34.6129 24.8892 35.4847 24.8892C36.1157 24.8892 36.6865 25.2723 36.9352 25.8634L40.8887 35.2598V39.1114C40.8887 40.0936 40.1076 40.8891 39.1432 40.8891Z" fill="#40C15A"/>
<path d="M35.6522 38.2221H34.6835C34.8685 38.0843 35.0518 37.9448 35.2159 37.7777C36.0537 36.9243 36.525 35.7661 36.525 34.559C36.525 33.4612 36.2736 32.3777 35.7919 31.3954L34.3432 28.4443H35.6522C36.6166 28.4443 37.3977 29.2399 37.3977 30.2221V36.4443C37.3977 37.4265 36.6166 38.2221 35.6522 38.2221Z" fill="#40C15A"/>
<path d="M17.4854 42.6667C17.3876 42.9459 17.3248 43.2419 17.3248 43.5556C17.3248 45.0285 18.4969 46.2223 19.943 46.2223C21.3891 46.2223 22.5612 45.0285 22.5612 43.5556C22.5612 43.2419 22.4983 42.9459 22.4006 42.6667H24.3066V43.5556C24.3066 46.0099 22.3526 48.0001 19.943 48.0001C17.5334 48.0001 15.5793 46.0099 15.5793 43.5556V42.6667H17.4854Z" fill="#686868"/>
<path d="M39.1432 43.5557C39.1432 45.0286 40.3152 46.2223 41.7614 46.2223C43.2075 46.2223 44.3795 45.0286 44.3795 43.5557H46.125C46.125 46.0099 44.171 48.0001 41.7614 48.0001C39.3517 48.0001 37.3977 46.0099 37.3977 43.5557H39.1432Z" fill="#686868"/>
<path d="M4.23408 21.333H18.1978V31.9997H4.23408V21.333Z" fill="#FF7F22"/>
<path d="M18.1978 21.333V30.2219H7.725C6.76063 30.2219 5.97954 29.4263 5.97954 28.4441V21.333H18.1978Z" fill="#FF9D56"/>
<path d="M35.6521 43.556C35.6521 40.1195 38.3873 37.3337 41.7613 37.3337C45.1352 37.3337 47.8704 40.1195 47.8704 43.556H35.6521Z" fill="#40C15A"/>
<path d="M37.4674 43.5557C37.8916 40.5415 40.4303 38.2224 43.5067 38.2224C44.1351 38.2224 44.7416 38.3193 45.3124 38.4989C46.8589 39.6277 47.8704 41.4695 47.8704 43.5557H37.4674Z" fill="#40C15A"/>
<path d="M25.1794 15.9997C22.2874 15.9997 19.943 13.6119 19.943 10.6663C19.943 7.72082 22.2874 5.33301 25.1794 5.33301C28.0714 5.33301 30.4158 7.72082 30.4158 10.6663C30.4158 13.6119 28.0714 15.9997 25.1794 15.9997Z" fill="#FBE1CA"/>
<path d="M27.2556 10.1143L26.595 9.44145C26.2476 9.08767 25.7772 8.88945 25.2859 8.88945C24.263 8.88856 23.4339 9.733 23.4339 10.7739V11.3437C23.4339 12.5623 22.7576 13.677 21.6876 14.2219L21.4109 14.3632C20.5033 13.4041 19.943 12.1028 19.943 10.6663C19.943 7.72056 22.2872 5.33301 25.1794 5.33301C28.0716 5.33301 30.4158 7.72056 30.4158 10.6663H28.5647C28.0734 10.6663 27.6021 10.4672 27.2556 10.1143Z" fill="#FF7F22"/>
<path d="M30.4157 39.1112L29.543 33.7778L25.093 32.4827C24.0221 32.1707 23.0944 31.4818 22.4765 30.5378C21.9625 29.7521 21.6885 28.8294 21.6885 27.8854V18.6667H24.3066C25.9421 19.777 26.9248 21.6472 26.9248 23.6499V28.4445L33.0339 31.1112V39.1112" fill="#282828"/>
<path d="M42.634 31.1111V24C40.7062 24 39.1431 25.592 39.1431 27.5556C39.1431 29.5191 40.7062 31.1111 42.634 31.1111Z" fill="#40C15A"/>
<path d="M26.925 23.6499V28.4445H21.7288C21.7079 28.2596 21.6887 28.0738 21.6887 27.8854V18.6667H24.3069C25.9424 19.777 26.925 21.6472 26.925 23.6499Z" fill="#FF7F22"/>
<path d="M26.925 33.7778C26.3901 34.8676 25.2965 35.5556 24.1009 35.5556H17.531C16.3353 35.5556 15.2418 34.8676 14.7068 33.7778C16.4139 32.6187 18.4203 32 20.4721 32H21.1607C23.2116 32 25.218 32.6187 26.925 33.7778Z" fill="#686868"/>
<path d="M17.3249 32.8889V32.5013C18.3373 32.1733 19.3976 32 20.4719 32H21.1605C23.2123 32 25.2178 32.6187 26.9258 33.7778H18.1985C17.7159 33.7778 17.3249 33.3796 17.3249 32.8889Z" fill="#686868"/>
<path d="M5.97947 46.2225C4.53348 46.2225 3.36128 45.0286 3.36128 43.5558C3.36128 42.0831 4.53348 40.8892 5.97947 40.8892C7.42545 40.8892 8.59766 42.0831 8.59766 43.5558C8.59766 45.0286 7.42545 46.2225 5.97947 46.2225Z" fill="#686868"/>
<path d="M3.36138 44.4448C1.4334 44.4448 -0.129542 42.853 -0.129542 40.8893C-0.129542 38.9256 1.4334 37.3337 3.36138 37.3337C5.28936 37.3337 6.85229 38.9256 6.85229 40.8893C6.85229 42.853 5.28936 44.4448 3.36138 44.4448Z" fill="#FCCEAD"/>
</g>
<defs>
<clipPath id="clip0">
<rect width="48" height="48" fill="white"/>
</clipPath>
</defs>
</svg>
