<svg width="59" height="59" viewBox="0 0 59 59" fill="none" xmlns="http://www.w3.org/2000/svg">
<rect width="59" height="59" rx="10" fill="#58DA72"/>
<path d="M29.2459 13.5131C29.4962 12.9647 29.9631 12.81 30.3512 12.7931C30.9419 12.765 31.5606 13.1728 32.1428 13.6537C32.5562 14.1206 33.0512 14.4806 33.625 14.7337C34.0215 14.8744 34.4153 14.9025 34.8147 14.8828C35.3772 14.8547 35.9481 14.7309 36.5134 14.7028L36.5444 14.7L36.8003 14.6775C37.4472 14.6466 38.0575 14.7984 38.6369 15.1331C39.1684 15.6169 39.4019 16.2187 39.3287 16.9444C39.205 17.5434 39.3119 18.0919 39.6465 18.5897C40.2231 18.9947 40.8278 19.3491 41.4634 19.65C42.1215 20.01 42.535 20.5528 42.715 21.2756C42.7797 22.0406 42.4253 22.53 41.6603 22.7409C40.6647 22.9912 39.3259 22.9912 38.1981 23.8631C36.55 25.2384 36.0325 26.625 35.3153 26.8359C34.9637 26.4366 32.77 24.7406 29.0912 23.9278C28.4331 21.6581 28.0337 16.1794 29.2459 13.5131Z" fill="#FFE454"/>
<path d="M32.9584 23.444C33.6053 22.1503 35.4475 19.875 35.889 20.325C36.325 20.8144 35.3209 23.3569 34.615 24.6028C34.3647 24.3384 33.5575 23.7844 33.2059 23.6915" fill="#D19B15"/>
<path d="M36.2125 27.5868C35.8328 27.5868 35.4616 27.3928 35.2506 27.044C33.3156 23.8603 28.9337 24.195 28.8916 24.2006C28.2728 24.2512 27.7272 23.7956 27.6737 23.1797C27.6476 22.8834 27.7397 22.5888 27.9299 22.3601C28.1201 22.1315 28.393 21.9873 28.6891 21.959C28.9253 21.9365 34.5025 21.4781 37.1744 25.8797C37.4978 26.4112 37.3262 27.1031 36.7975 27.4237C36.6119 27.5334 36.4122 27.5868 36.2125 27.5868Z" fill="#8D6E63"/>
<path d="M37.0169 46.3322C32.1991 47.5191 25.5025 47.4347 20.7184 46.4897C16.2409 45.6038 12.8125 42.9628 13.2063 37.7653C13.6056 32.506 17.0903 27.5532 21.8828 25.3707C26.5206 23.2585 32.7447 22.2291 36.0241 27.0216C36.8397 28.2141 38.3978 30.8607 38.471 32.16C38.4766 32.2641 38.4822 32.3569 38.5047 32.4469C38.5103 32.7732 38.6425 33.1022 38.9631 33.3441C41.0247 34.905 42.5266 36.975 42.8022 39.8128C43.1284 43.1963 39.9278 45.615 37.0169 46.3322Z" fill="#FFE454"/>
<path d="M32.7447 37.6303C32.1597 36.6797 31.0825 35.6475 30.0644 34.7616L30.8547 32.5734C31.5578 33.1219 32.1766 33.6366 32.6603 34.0809C32.7391 34.1569 32.8628 34.1625 32.9528 34.0978L34.7641 32.7506C34.8147 32.7112 34.8456 32.655 34.8541 32.5903C34.8571 32.5587 34.8534 32.5269 34.8432 32.4968C34.833 32.4667 34.8166 32.4392 34.795 32.4159C34.2578 31.8169 33.0934 30.7678 31.8194 29.9044L32.2834 28.6219C32.3369 28.4756 32.2637 28.3153 32.1147 28.2591L29.9856 27.4884C29.8394 27.435 29.6762 27.5109 29.6228 27.6572L29.2769 28.6162C27.2716 27.9947 25.6797 28.1944 24.4309 29.2378C23.4522 30.0591 23.0303 31.2319 23.3284 32.295C23.6322 33.4284 24.5209 34.2047 25.6459 35.1862L25.7894 35.3128C26.0509 35.5378 26.3294 35.7712 26.6022 36.0047L25.6403 38.6653C24.3775 37.8384 23.32 36.6937 23.14 36.4434C23.1063 36.3969 23.0561 36.365 22.9998 36.354C22.9434 36.343 22.8849 36.3539 22.8362 36.3844L20.7494 37.7175C20.6987 37.7484 20.6622 37.8019 20.6481 37.8637C20.6369 37.9228 20.6481 37.9847 20.6819 38.0353C21.3091 38.9803 22.3356 40.0378 23.4297 40.8647C23.6912 41.0616 24.085 41.3372 24.5687 41.6269L24.2059 42.6253C24.1553 42.7716 24.2284 42.9319 24.3747 42.9853L26.5066 43.7587C26.6528 43.8122 26.8159 43.7362 26.8694 43.59L27.1703 42.7575C29.1166 43.2862 30.8266 42.9797 32.1484 41.8491C33.4253 40.755 33.6447 39.2194 32.7447 37.6303ZM28.3319 31.2375L27.7497 32.8491C27.2069 32.4272 26.9172 32.1094 27.1225 31.6537C27.3362 31.1869 27.8678 31.1559 28.3319 31.2375ZM28.9084 37.9594C29.2825 38.3222 29.5469 38.6569 29.5722 38.9634C29.5834 39.1378 29.5187 39.3066 29.3669 39.4809C29.1025 39.7875 28.6806 39.8466 28.2447 39.7931L28.9084 37.9594Z" fill="#424242"/>
</svg>
