<svg width="79" height="79" viewBox="0 0 79 79" fill="none" xmlns="http://www.w3.org/2000/svg">
<g clip-path="url(#clip0)">
<path d="M39.5 0C61.3143 0 79 17.6849 79 39.5C79 61.3151 61.3143 79 39.5 79C17.6849 79 0 61.3151 0 39.5C0 17.6849 17.6849 0 39.5 0Z" fill="white"/>
<path d="M35.55 48.19H43.45C52.1763 48.19 59.25 55.2636 59.25 63.99V70.31C59.25 79.0363 52.1763 86.1108 43.45 86.1108H35.55C26.8237 86.1108 19.75 79.0363 19.75 70.31V63.99C19.75 55.2636 26.8237 48.19 35.55 48.19Z" fill="#439BE9"/>
<path d="M39.3933 63.1953C37.7802 63.1953 36.3416 64.4103 36.3416 65.6853C36.3416 66.2265 36.7445 66.6254 37.3212 66.6254C37.9903 66.6254 38.2312 66.2273 38.4114 65.8473C38.6041 65.4373 38.7582 65.0865 39.466 65.0865C40.0925 65.0865 40.5704 65.3843 40.5704 65.9247C40.5704 66.3892 40.0166 66.5551 39.5292 66.9256C38.9604 67.357 38.3166 67.8468 38.3166 68.6842C38.3166 69.1629 38.6555 69.6504 39.2835 69.6504C39.9858 69.6504 40.143 69.2633 40.271 68.9338C40.3192 68.8098 40.3627 68.6905 40.4345 68.5878C40.5333 68.4472 40.779 68.275 41.0381 68.094C41.723 67.6137 42.6631 66.9557 42.6631 65.773C42.6631 63.8699 40.9007 63.1953 39.3933 63.1953ZM39.3143 70.4048C38.6981 70.4048 38.1988 70.9151 38.1988 71.5408C38.1988 72.1705 38.6981 72.6776 39.3143 72.6776C39.9305 72.6776 40.429 72.1673 40.429 71.5408C40.429 70.9143 39.9305 70.4048 39.3143 70.4048ZM40.29 41.87C46.3983 41.87 51.35 45.4084 51.35 49.7708C51.35 54.1316 46.3983 57.67 40.29 57.67C34.1817 57.67 29.23 54.1316 29.23 49.7708C29.23 45.4084 34.1817 41.87 40.29 41.87Z" fill="#FFF55C"/>
<path d="M26.07 37.1308H54.51C54.9289 37.1308 55.3307 37.2971 55.6269 37.5933C55.9232 37.8894 56.0898 38.2911 56.09 38.71V47.4C56.09 47.819 55.9235 48.2209 55.6272 48.5172C55.3309 48.8135 54.929 48.98 54.51 48.98H26.07C25.6509 48.98 25.2491 48.8135 24.9528 48.5172C24.6565 48.2209 24.49 47.819 24.49 47.4V38.71C24.4902 38.2911 24.6568 37.8894 24.953 37.5933C25.2493 37.2971 25.6511 37.1308 26.07 37.1308Z" fill="#4D301A"/>
<path d="M40.29 15.01C49.0163 15.01 56.09 23.8525 56.09 34.76C56.09 45.6691 49.0163 54.51 40.29 54.51C31.5637 54.51 24.49 45.6691 24.49 34.76C24.49 23.8525 31.5637 15.01 40.29 15.01Z" fill="#FEC297"/>
<path d="M34.365 33.97C35.0983 33.97 35.8016 34.2613 36.3201 34.7799C36.8387 35.2984 37.13 36.0017 37.13 36.735C37.13 37.4683 36.8387 38.1716 36.3201 38.6901C35.8016 39.2087 35.0983 39.5 34.365 39.5C33.6317 39.5 32.9284 39.2087 32.4098 38.6901C31.8913 38.1716 31.6 37.4683 31.6 36.735C31.6 36.0017 31.8913 35.2984 32.4098 34.7799C32.9284 34.2613 33.6317 33.97 34.365 33.97Z" fill="white"/>
<path d="M34.3651 35.55C34.6793 35.55 34.9807 35.6748 35.203 35.8971C35.4252 36.1193 35.5501 36.4207 35.5501 36.735C35.5501 37.0493 35.4252 37.3507 35.203 37.5729C34.9807 37.7951 34.6793 37.92 34.3651 37.92C34.0508 37.92 33.7494 37.7951 33.5271 37.5729C33.3049 37.3507 33.1801 37.0493 33.1801 36.735C33.1801 36.4207 33.3049 36.1193 33.5271 35.8971C33.7494 35.6748 34.0508 35.55 34.3651 35.55Z" fill="#3498DB"/>
<path d="M45.425 33.97C46.1584 33.97 46.8616 34.2613 47.3802 34.7799C47.8987 35.2984 48.19 36.0017 48.19 36.735C48.19 37.4683 47.8987 38.1716 47.3802 38.6901C46.8616 39.2087 46.1584 39.5 45.425 39.5C44.6917 39.5 43.9884 39.2087 43.4699 38.6901C42.9513 38.1716 42.66 37.4683 42.66 36.735C42.66 36.0017 42.9513 35.2984 43.4699 34.7799C43.9884 34.2613 44.6917 33.97 45.425 33.97Z" fill="white"/>
<path d="M45.425 35.55C45.7395 35.5502 46.041 35.6753 46.2632 35.8979C46.4855 36.1204 46.6102 36.4221 46.61 36.7366C46.6098 37.0511 46.4846 37.3526 46.2621 37.5748C46.0396 37.7971 45.7379 37.9218 45.4234 37.9216C45.1089 37.9214 44.8074 37.7962 44.5852 37.5737C44.3629 37.3512 44.2382 37.0495 44.2384 36.735C44.2386 36.4205 44.3637 36.119 44.5863 35.8967C44.8088 35.6745 45.1105 35.5498 45.425 35.55Z" fill="#3498DB"/>
<path d="M55.7889 30.923C54.3606 21.8522 47.9656 15.01 40.2899 15.01C32.3852 15.01 25.8361 22.2669 24.6732 31.7414C25.9048 32.1554 33.6595 34.3792 43.5218 27.2155C45.5671 29.5262 49.6277 32.8885 55.7889 30.923Z" fill="#4D301A"/>
<path d="M55.3214 29.23C54.3718 29.2364 54.5345 31.8829 54.5345 35.155C54.5345 35.8147 54.5251 36.4483 54.5187 37.0416C53.6932 38.3198 51.5349 41.4158 48.969 43.0187C46.8305 44.3554 43.9667 45.2599 42.4673 45.6763C42.2987 45.2829 42.0266 44.9425 41.6802 44.6913C41.3337 44.4401 40.9256 44.2874 40.4993 44.2494C40.073 44.2114 39.6444 44.2896 39.2589 44.4756C38.8735 44.6616 38.5456 44.9485 38.3101 45.3059C38.0746 45.6633 37.9402 46.0777 37.9213 46.5053C37.9024 46.9329 37.9996 47.3576 38.2026 47.7344C38.4057 48.1111 38.707 48.4259 39.0745 48.6452C39.442 48.8645 39.8621 48.9802 40.29 48.98C40.8123 48.979 41.3195 48.8051 41.7327 48.4856C42.1458 48.1661 42.4416 47.7188 42.5739 47.2136C43.5772 46.9719 47.1014 46.0491 49.6176 44.4778C51.6416 43.2115 53.4522 41.0311 54.5645 39.5056C54.6436 40.4796 54.8434 41.08 55.3214 41.08C57.9276 41.08 60.04 38.4272 60.04 35.155C60.04 31.8829 57.9276 29.2127 55.3214 29.23ZM25.28 29.23C22.6628 29.2127 20.54 31.8829 20.54 35.155C20.54 38.4272 22.6628 41.08 25.28 41.08C26.2936 41.08 26.07 38.4272 26.07 35.155C26.07 31.8829 26.2336 29.2364 25.28 29.23Z" fill="#FFF55C"/>
</g>
<defs>
<clipPath id="clip0">
<rect width="79" height="79" fill="white"/>
</clipPath>
</defs>
</svg>
