<svg width="54" height="54" viewBox="0 0 54 54" fill="none" xmlns="http://www.w3.org/2000/svg">
<g filter="url(#filter0_d)">
<circle cx="27" cy="28" r="25" fill="white"/>
</g>
<path d="M46.4052 14.3781L44.4066 16.3588C49.5558 24.0575 48.9355 34.2736 42.7033 41.3283C40.2814 38.928 41.1773 39.8159 38.7652 37.4253C34.0197 43.0749 25.9464 44.4995 19.5863 40.9673L17.5581 42.9774C24.1644 47.0267 32.7496 46.451 38.775 41.3283C41.197 43.7287 40.3011 42.8408 42.7132 45.2314C51.7021 37.3082 53.2183 24.0575 46.4052 14.3781Z" fill="#EC1C24"/>
<path d="M40.7439 12.2019C38.322 14.6023 39.2179 13.7143 36.8058 16.1049C42.5161 20.8276 43.9339 28.8287 40.3698 35.1223L42.398 37.1324C46.4937 30.5656 45.8931 22.057 40.7341 16.1049C43.1462 13.7143 42.2503 14.6023 44.6723 12.2019C36.6778 3.30303 23.3175 1.78086 13.541 8.54282L15.5396 10.5236C23.3175 5.41066 33.6355 6.03514 40.7439 12.2019Z" fill="#FF7F22"/>
<path d="M13.3146 43.2797C15.7366 40.8794 14.8407 41.7673 17.2528 39.3767C11.5523 34.6638 10.1247 26.6627 13.6887 20.3593L11.6606 18.3492C7.56488 24.9161 8.16545 33.4149 13.3245 39.3767C10.9123 41.7673 11.7984 40.8891 9.38629 43.2797C17.3906 52.1884 30.741 53.7008 40.5175 46.9486L38.5189 44.9678C30.7017 50.1002 20.3935 49.4172 13.3146 43.2797Z" fill="#37B34A"/>
<path d="M11.3555 14.1535C12.5763 15.3634 14.0728 16.8466 15.2937 18.0565C20.049 12.3972 28.1321 10.9921 34.4824 14.5243L36.5106 12.5142C29.8846 8.45511 21.3092 9.05032 15.2937 14.1633C12.8717 11.7629 13.7676 12.6508 11.3555 10.2603C2.37645 18.1736 0.840565 31.4243 7.6536 41.1136L9.65223 39.1328C4.50306 31.4341 5.12333 21.2082 11.3555 14.1535Z" fill="#1B75BB"/>
<path fill-rule="evenodd" clip-rule="evenodd" d="M27.0492 40.4426C34.1179 40.4426 39.8482 34.7634 39.8482 27.7578C39.8482 20.7522 34.1179 15.073 27.0492 15.073C19.9805 15.073 14.2501 20.7522 14.2501 27.7578C14.2501 34.7634 19.9805 40.4426 27.0492 40.4426ZM27.0491 37.515C32.4865 37.515 36.8945 33.1464 36.8945 27.7575C36.8945 22.3685 32.4865 17.9999 27.0491 17.9999C21.6116 17.9999 17.2036 22.3685 17.2036 27.7575C17.2036 33.1464 21.6116 37.515 27.0491 37.515Z" fill="#253646"/>
<defs>
<filter id="filter0_d" x="0" y="0" width="54" height="54" filterUnits="userSpaceOnUse" color-interpolation-filters="sRGB">
<feFlood flood-opacity="0" result="BackgroundImageFix"/>
<feColorMatrix in="SourceAlpha" type="matrix" values="0 0 0 0 0 0 0 0 0 0 0 0 0 0 0 0 0 0 127 0"/>
<feOffset dy="-1"/>
<feGaussianBlur stdDeviation="1"/>
<feColorMatrix type="matrix" values="0 0 0 0 0 0 0 0 0 0 0 0 0 0 0 0 0 0 0.05 0"/>
<feBlend mode="normal" in2="BackgroundImageFix" result="effect1_dropShadow"/>
<feBlend mode="normal" in="SourceGraphic" in2="effect1_dropShadow" result="shape"/>
</filter>
</defs>
</svg>
