<svg width="297" height="253" viewBox="0 0 297 253" fill="none" xmlns="http://www.w3.org/2000/svg">
<g clip-path="url(#clip0)">
<path d="M10.5262 95.1127H49.919C52.4303 94.767 54.7324 93.5274 56.4022 91.6218C58.072 89.7163 58.9974 87.2726 59.0083 84.74C58.9944 82.1939 58.0564 79.7393 56.3684 77.8317C54.6803 75.9241 52.3568 74.6932 49.8292 74.3673H44.081C41.2907 74.3626 38.6161 73.2531 36.6431 71.282C34.67 69.3108 33.5595 66.6387 33.5547 63.8511C33.5595 61.0635 34.67 58.3914 36.6431 56.4202C38.6161 54.4491 41.2907 53.3396 44.081 53.3349H90.5872C94.945 52.8446 99.1406 51.3984 102.874 49.0997C117.881 41.7791 134.387 38.0489 151.086 38.2041C167.786 38.3594 184.219 42.3959 199.087 49.9941C213.955 57.5923 226.848 68.5437 236.746 81.9814C246.645 95.419 253.276 110.974 256.116 127.415C256.478 129.3 257.51 130.991 259.022 132.175C260.534 133.359 262.424 133.957 264.343 133.858H264.81H286.474C289.264 133.862 291.939 134.972 293.912 136.943C295.885 138.914 296.995 141.586 297 144.374C296.99 147.162 295.875 149.832 293.899 151.8C291.922 153.767 289.246 154.872 286.456 154.872H268.259C265.748 155.214 263.444 156.449 261.771 158.351C260.097 160.253 259.168 162.695 259.152 165.227C259.137 167.781 260.053 170.253 261.729 172.181C263.405 174.11 265.726 175.363 268.259 175.707H274.007C276.798 175.717 279.47 176.831 281.44 178.805C283.41 180.78 284.516 183.454 284.516 186.242C284.506 189.029 283.391 191.699 281.415 193.667C279.438 195.635 276.762 196.74 273.971 196.74H259.763C257.272 197.105 254.996 198.351 253.348 200.252C251.7 202.152 250.789 204.58 250.781 207.095C250.792 209.627 251.717 212.071 253.387 213.976C255.057 215.882 257.359 217.121 259.87 217.467H286.456C287.847 217.47 289.225 217.747 290.509 218.282C291.793 218.818 292.958 219.602 293.938 220.59C294.918 221.577 295.693 222.748 296.218 224.035C296.744 225.322 297.009 226.701 297 228.091C297.007 229.479 296.739 230.855 296.213 232.139C295.686 233.423 294.91 234.591 293.931 235.575C292.951 236.559 291.786 237.339 290.503 237.872C289.22 238.405 287.845 238.679 286.456 238.679H209.484C205.608 238.965 201.819 239.969 198.311 241.64C182.862 249.374 165.776 253.276 148.497 253.016C131.219 252.756 114.258 248.342 99.049 240.147C83.8399 231.952 70.8306 220.218 61.1219 205.937C51.4131 191.655 45.2907 175.248 43.2727 158.102H21.6093C18.8205 158.093 16.1486 156.982 14.1766 155.012C12.2046 153.042 11.0925 150.372 11.083 147.586C11.0925 144.8 12.2046 142.131 14.1766 140.161C16.1486 138.19 18.8205 137.079 21.6093 137.07H33.2134C35.7247 136.724 38.0268 135.485 39.6966 133.579C41.3664 131.674 42.2918 129.23 42.3027 126.697C42.2889 124.151 41.3509 121.697 39.6628 119.789C37.9748 117.881 35.6513 116.65 33.1236 116.325H10.5262C7.7359 116.32 5.06122 115.21 3.0882 113.239C1.11517 111.268 0.00463867 108.596 -0.00012207 105.808C-0.0215454 104.413 0.234802 103.027 0.753967 101.732C1.27313 100.436 2.0448 99.2565 3.02417 98.2614C4.00354 97.2662 5.17102 96.4755 6.45889 95.9349C7.74677 95.3944 9.1293 95.1149 10.5262 95.1127Z" fill="#DCDCDC"/>
<path d="M273.181 122.103C267.883 122.103 263.589 117.813 263.589 112.52C263.589 107.227 267.883 102.937 273.181 102.937C278.479 102.937 282.773 107.227 282.773 112.52C282.773 117.813 278.479 122.103 273.181 122.103Z" fill="#DCDCDC"/>
<path d="M27.681 189.023C22.3833 189.023 18.0887 184.733 18.0887 179.44C18.0887 174.148 22.3833 169.857 27.681 169.857C32.9786 169.857 37.2732 174.148 37.2732 179.44C37.2732 184.733 32.9786 189.023 27.681 189.023Z" fill="#DCDCDC"/>
<path d="M59.8886 116.522H233.034V218.096H59.8886V116.522Z" fill="#80614D"/>
<g style="mix-blend-mode:multiply" opacity="0.3">
<path d="M59.8886 116.522H233.034V125.71H59.8886V116.522Z" fill="#80614D"/>
</g>
<path d="M57.8587 217.378H235.064V226.781H57.8587V217.378Z" fill="#AA826B"/>
<path d="M179.935 132.494H219.58V179.369H179.935V132.494Z" fill="white"/>
<path d="M201.742 135.258H216.472V176.569H201.742V135.258Z" fill="#A4D7F4"/>
<path d="M183.043 135.258H197.772V176.569H183.043V135.258Z" fill="#A4D7F4"/>
<g style="mix-blend-mode:multiply" opacity="0.4">
<path d="M216.472 135.258H209.448L216.472 176.569V135.258Z" fill="#A4D7F4"/>
</g>
<g style="mix-blend-mode:multiply" opacity="0.4">
<path d="M197.772 135.258H190.749L197.772 176.569V135.258Z" fill="#A4D7F4"/>
</g>
<path d="M130.178 132.494H169.822V179.369H130.178V132.494Z" fill="white"/>
<path d="M151.985 135.258H166.714V176.569H151.985V135.258Z" fill="#A4D7F4"/>
<path d="M133.285 135.258H148.015V176.569H133.285V135.258Z" fill="#A4D7F4"/>
<g style="mix-blend-mode:multiply" opacity="0.4">
<path d="M166.714 135.258H159.691L166.714 176.569V135.258Z" fill="#A4D7F4"/>
</g>
<g style="mix-blend-mode:multiply" opacity="0.4">
<path d="M148.015 135.258H140.991L148.015 176.569V135.258Z" fill="#A4D7F4"/>
</g>
<path d="M76.0372 116.522H112.233V226.781H76.0372V116.522Z" fill="#D3AF9B"/>
<path d="M109.233 173.644C108.429 173.644 107.778 172.985 107.778 172.172C107.778 171.36 108.429 170.701 109.233 170.701C110.036 170.701 110.688 171.36 110.688 172.172C110.688 172.985 110.036 173.644 109.233 173.644Z" fill="#80614D"/>
<path d="M81.7674 121.529H106.754V169.408H81.7674V121.529Z" fill="#A4D7F4"/>
<g style="mix-blend-mode:multiply" opacity="0.4">
<path d="M106.754 121.529H94.8265L106.754 169.408V121.529Z" fill="#A4D7F4"/>
</g>
<path d="M81.7674 173.985H106.754V221.864H81.7674V173.985Z" fill="#A4D7F4"/>
<g style="mix-blend-mode:multiply" opacity="0.4">
<path d="M106.754 173.967H94.8265L106.754 221.864V173.967Z" fill="#A4D7F4"/>
</g>
<path d="M255.2 128.905H255.937V146.33H255.2V128.905Z" fill="#00AE9E"/>
<path d="M241.261 128.905H241.997V146.33H241.261V128.905Z" fill="#00AE9E"/>
<path d="M233.034 126.948H263.05V129.838H233.034V126.948Z" fill="#00AE9E"/>
<path d="M261.972 131.274C260.286 131.274 258.918 129.908 258.918 128.223C258.918 126.538 260.286 125.172 261.972 125.172C263.659 125.172 265.026 126.538 265.026 128.223C265.026 129.908 263.659 131.274 261.972 131.274Z" fill="#008E7F"/>
<path d="M249.128 155.267C243.067 155.267 238.153 151.089 238.153 145.935C238.153 140.782 243.067 136.604 249.128 136.604C255.19 136.604 260.104 140.782 260.104 145.935C260.104 151.089 255.19 155.267 249.128 155.267Z" fill="#EC4A47"/>
<path d="M112.592 130.017H124.843L115.682 116.522H107.041L112.592 130.017Z" fill="#EC4A47"/>
<path d="M124.843 130.017C124.789 131.693 124.097 133.285 122.909 134.469C121.721 135.652 120.125 136.339 118.448 136.388C117.637 136.376 116.837 136.198 116.098 135.865C115.358 135.532 114.694 135.052 114.148 134.454C113.601 133.855 113.182 133.151 112.918 132.385C112.653 131.619 112.549 130.807 112.61 130L124.843 130.017Z" fill="#BD3C37"/>
<path d="M100.359 130.017H112.592L107.041 116.522H98.3832L100.359 130.017Z" fill="url(#paint0_linear)"/>
<path d="M112.592 130.017C112.529 131.693 111.832 133.283 110.642 134.465C109.452 135.648 107.857 136.335 106.179 136.388C105.368 136.379 104.568 136.202 103.828 135.87C103.088 135.538 102.424 135.058 101.878 134.458C101.332 133.859 100.916 133.154 100.654 132.387C100.393 131.62 100.293 130.807 100.359 130L112.592 130.017Z" fill="url(#paint1_linear)"/>
<path d="M88.1084 130.017H100.359L98.3832 116.522H89.725L88.1084 130.017Z" fill="#EC4A47"/>
<path d="M100.359 130.017C100.292 131.698 99.5884 133.29 98.3914 134.472C97.1945 135.655 95.593 136.34 93.9104 136.388C93.1008 136.379 92.3018 136.203 91.5636 135.87C90.8254 135.538 90.1639 135.057 89.6208 134.457C89.0776 133.857 88.6645 133.151 88.4073 132.384C88.1501 131.617 88.0545 130.805 88.1263 130L100.359 130.017Z" fill="#BD3C37"/>
<path d="M75.8755 130.017H88.1083L89.725 116.522H81.0848L75.8755 130.017Z" fill="url(#paint2_linear)"/>
<path d="M88.1083 130.017C88.0277 131.7 87.3155 133.29 86.1136 134.47C84.9117 135.651 83.3085 136.336 81.6236 136.388C80.8147 136.379 80.0164 136.203 79.279 135.87C78.5417 135.538 77.8813 135.056 77.3395 134.456C76.7978 133.856 76.3864 133.15 76.1313 132.383C75.8763 131.616 75.783 130.804 75.8575 130L88.1083 130.017Z" fill="url(#paint3_linear)"/>
<path d="M63.6249 130.017H75.8757L81.085 116.522H72.4268L63.6249 130.017Z" fill="#EC4A47"/>
<path d="M75.8757 130.017C75.7864 131.703 75.0666 133.293 73.8588 134.473C72.6511 135.653 71.0436 136.337 69.3552 136.388C68.5476 136.38 67.7506 136.203 67.0149 135.87C66.2793 135.538 65.621 135.055 65.0821 134.454C64.5431 133.853 64.1352 133.147 63.8843 132.38C63.6335 131.613 63.5452 130.802 63.625 130L75.8757 130.017Z" fill="#BD3C37"/>
<path d="M62.2955 74.511H230.663L243.488 116.522H49.452L62.2955 74.511Z" fill="#EC5147"/>
<path d="M204.957 215.296H206.646V226.638H204.957V215.296Z" fill="#99563D"/>
<path d="M138.297 215.296H139.985V226.638H138.297V215.296Z" fill="#99563D"/>
<path d="M202.622 194.174H203.772V210.54H202.622V194.174Z" fill="#99563D"/>
<path d="M144.333 194.174H145.5V210.54H144.333V194.174Z" fill="#99563D"/>
<path d="M129.98 214.147H215.574L207.939 209.517H137.65L129.98 214.147Z" fill="#DA7F49"/>
<path d="M129.98 214.147H215.574V215.511H129.98V214.147Z" fill="#A8613D"/>
<path d="M136.591 203.613H208.963L207.939 208.243H137.65L136.591 203.613Z" fill="#DA7F49"/>
<path d="M137.489 202.788H208.083L208.963 203.613H136.591L137.489 202.788Z" fill="#A8613D"/>
<path d="M136.591 196.884H208.963L207.939 201.514H137.65L136.591 196.884Z" fill="#DA7F49"/>
<path d="M137.489 196.058H208.083L208.963 196.883H136.591L137.489 196.058Z" fill="#A8613D"/>
<path d="M136.591 190.046H208.963L207.939 194.676H137.65L136.591 190.046Z" fill="#DA7F49"/>
<path d="M137.489 189.221H208.083L208.963 190.046H136.591L137.489 189.221Z" fill="#A8613D"/>
<path d="M227.77 200.132L229.01 226.656C232.818 227.184 236.68 227.184 240.488 226.656L241.907 199.737C237.22 200.341 232.484 200.473 227.77 200.132Z" fill="#90492D"/>
<path d="M242.716 196.686C239.021 196.214 235.303 195.951 231.579 195.897C229.805 195.789 228.027 196.039 226.352 196.632C231.72 197.989 237.339 198.008 242.716 196.686Z" fill="#572700"/>
<path d="M226.369 196.632L226.657 200.221C226.657 200.221 238.135 201.711 242.716 199.683V196.686C237.286 197.34 231.795 197.322 226.369 196.632Z" fill="#794400"/>
<path d="M237.273 196.435C237.273 196.435 237.273 190.782 237.273 188.413C237.161 184.893 236.692 181.394 235.872 177.969C234.974 174.972 232.908 176.443 232.459 177.269C232.001 180.73 231.869 184.227 232.064 187.713C232.208 189.741 231.758 195.466 232.208 196.561C232.333 197.117 235.926 197.135 237.273 196.435Z" fill="#7AC143"/>
<path d="M237.219 188.431C237.655 188.203 238.04 187.888 238.349 187.505C238.658 187.122 238.885 186.68 239.015 186.206C239.267 184.734 239.464 182.24 240.381 182.437C241.297 182.634 242.698 183.693 242.177 187.175C242.136 187.752 241.977 188.314 241.707 188.826C241.438 189.339 241.066 189.789 240.613 190.15C240.161 190.511 239.638 190.774 239.079 190.923C238.519 191.072 237.935 191.103 237.363 191.015" fill="#54B948"/>
<path d="M231.938 186.636C231.525 186.52 231.153 186.29 230.864 185.972C230.575 185.655 230.381 185.264 230.303 184.842C229.89 183.263 228.166 180.122 227.357 182.096C226.549 184.07 226.19 187.211 228.255 188.88C229.274 189.837 230.612 190.381 232.01 190.405" fill="#49A942"/>
<path d="M236.303 180.086C236.846 179.418 237.205 178.62 237.345 177.771C237.632 176.264 238.674 175.869 239.051 178.274C239.264 179.148 239.141 180.071 238.705 180.859C238.269 181.647 237.553 182.242 236.698 182.527" fill="#439539"/>
<path d="M107.94 2.30339e-05C114.611 0.00061573 121.021 2.58856 125.819 7.21844C130.618 11.8483 133.43 18.1585 133.663 24.8191C133.663 24.8191 136.986 39.75 108.011 67.6198C95.0241 55.0578 88.5395 45.2414 85.3241 38.1169C83.1697 34.1957 82.0756 29.7812 82.1496 25.3087C82.2237 20.8362 83.4634 16.4602 85.7464 12.6123C88.0294 8.76441 91.2769 5.57747 95.1687 3.36578C99.0605 1.15409 103.462 -0.00596096 107.94 2.30339e-05ZM107.94 36.5915C110.089 36.5915 112.19 35.9548 113.977 34.7618C115.764 33.5688 117.157 31.8731 117.98 29.8892C118.802 27.9053 119.018 25.7223 118.598 23.6162C118.179 21.5101 117.144 19.5755 115.624 18.0571C114.104 16.5387 112.168 15.5046 110.06 15.0857C107.952 14.6668 105.766 14.8818 103.781 15.7036C101.795 16.5253 100.098 17.9169 98.9034 19.7024C97.7093 21.4878 97.0719 23.587 97.0719 25.7343C97.0599 27.1634 97.3329 28.5806 97.8748 29.9033C98.4167 31.226 99.2167 32.4276 100.228 33.4382C101.24 34.4488 102.443 35.248 103.767 35.7894C105.09 36.3308 106.509 36.6035 107.94 36.5915Z" fill="#FFD200"/>
</g>
<defs>
<linearGradient id="paint0_linear" x1="112.592" y1="123.27" x2="98.3832" y2="123.27" gradientUnits="userSpaceOnUse">
<stop stop-color="white"/>
<stop offset="0.31" stop-color="#FCFEFF"/>
<stop offset="0.59" stop-color="#F1FAFE"/>
<stop offset="0.84" stop-color="#DFF3FE"/>
<stop offset="1" stop-color="#D0EDFD"/>
</linearGradient>
<linearGradient id="paint1_linear" x1="112.592" y1="133.212" x2="100.341" y2="133.212" gradientUnits="userSpaceOnUse">
<stop stop-color="#F1F2F2"/>
<stop offset="0.69" stop-color="#CFECF0"/>
<stop offset="1" stop-color="#BFE9EF"/>
</linearGradient>
<linearGradient id="paint2_linear" x1="-1508.36" y1="1043.51" x2="-1615.14" y2="1043.51" gradientUnits="userSpaceOnUse">
<stop stop-color="white"/>
<stop offset="0.31" stop-color="#FCFEFF"/>
<stop offset="0.59" stop-color="#F1FAFE"/>
<stop offset="0.84" stop-color="#DFF3FE"/>
<stop offset="1" stop-color="#D0EDFD"/>
</linearGradient>
<linearGradient id="paint3_linear" x1="-1339.43" y1="604.233" x2="-1423.15" y2="604.233" gradientUnits="userSpaceOnUse">
<stop stop-color="#F1F2F2"/>
<stop offset="0.69" stop-color="#CFECF0"/>
<stop offset="1" stop-color="#BFE9EF"/>
</linearGradient>
<clipPath id="clip0">
<rect width="297" height="253" fill="white" transform="matrix(-1 0 0 1 297 0)"/>
</clipPath>
</defs>
</svg>
