<svg width="299" height="217" viewBox="0 0 299 217" fill="none" xmlns="http://www.w3.org/2000/svg">
<path d="M10.7003 57.4519H50.329C52.8553 57.1029 55.1712 55.8516 56.851 53.928C58.5308 52.0044 59.4617 49.5376 59.4727 46.9811C59.4588 44.4108 58.5151 41.933 56.817 40.0073C55.1188 38.0817 52.7814 36.8391 50.2386 36.5102H44.4561C41.649 36.5054 38.9584 35.3854 36.9735 33.3956C34.9887 31.4058 33.8715 28.7084 33.8667 25.8944C33.8762 23.0819 34.995 20.3873 36.9788 18.3985C38.9626 16.4097 41.6505 15.2882 44.4561 15.2787H91.2407C95.6246 14.7838 99.8454 13.3239 103.601 11.0034C118.697 3.61356 135.303 -0.152018 152.102 0.00469861C168.901 0.161415 185.434 4.23612 200.39 11.9063C215.347 19.5764 228.318 30.6315 238.275 44.1963C248.233 57.7612 254.904 73.4634 257.761 90.0601C258.125 91.9631 259.163 93.6699 260.684 94.8653C262.206 96.0607 264.107 96.6639 266.037 96.5636H266.507H288.3C289.693 96.566 291.072 96.8434 292.358 97.38C293.644 97.9166 294.812 98.7019 295.795 99.691C296.779 100.68 297.558 101.854 298.089 103.145C298.62 104.436 298.892 105.819 298.889 107.216C298.88 110.03 297.758 112.725 295.77 114.712C293.782 116.698 291.089 117.813 288.282 117.813H269.977C267.45 118.158 265.132 119.405 263.449 121.325C261.766 123.245 260.831 125.71 260.815 128.266C260.8 130.844 261.722 133.339 263.408 135.286C265.093 137.233 267.428 138.498 269.977 138.846H275.759C278.566 138.855 281.255 139.98 283.236 141.973C285.218 143.966 286.33 146.665 286.33 149.479C286.321 152.294 285.199 154.989 283.211 156.975C281.223 158.962 278.53 160.077 275.723 160.077H261.429C258.924 160.446 256.634 161.704 254.976 163.622C253.318 165.54 252.402 167.992 252.394 170.53C252.396 173.093 253.323 175.568 255.004 177.499C256.684 179.431 259.005 180.687 261.538 181.037H288.282C289.681 181.037 291.066 181.314 292.358 181.853C293.65 182.392 294.822 183.182 295.808 184.177C296.794 185.172 297.574 186.353 298.103 187.652C298.632 188.95 298.899 190.341 298.889 191.743C298.885 194.557 297.767 197.255 295.783 199.245C293.798 201.234 291.107 202.354 288.3 202.359H210.85C206.951 202.648 203.139 203.662 199.61 205.348C184.068 213.155 166.879 217.094 149.498 216.832C132.116 216.57 115.053 212.114 99.7532 203.841C84.453 195.569 71.3658 183.723 61.5989 169.307C51.8321 154.89 45.673 138.328 43.6429 121.02H21.8498C19.038 121.015 16.3427 119.893 14.3545 117.9C12.3663 115.907 11.2472 113.205 11.2424 110.386C11.2519 107.573 12.3706 104.879 14.3545 102.89C16.3383 100.901 19.0262 99.7797 21.8317 99.7701H33.5053C36.0317 99.4211 38.3475 98.1698 40.0273 96.2462C41.7072 94.3226 42.6381 91.8558 42.649 89.2993C42.6351 86.729 41.6915 84.2512 39.9933 82.3255C38.2951 80.3999 35.9577 79.1573 33.4149 78.8284H10.6822C7.87665 78.8189 5.18875 77.6973 3.20493 75.7086C1.2211 73.7198 0.102386 71.0252 0.0928345 68.2126C0.0785217 66.8062 0.342224 65.4108 0.868652 64.1071C1.39508 62.8033 2.17386 61.617 3.16003 60.6166C4.14621 59.6162 5.32028 58.8214 6.61444 58.2783C7.9086 57.7351 9.29727 57.4542 10.7003 57.4519Z" fill="#DCDCDC"/>
<path d="M274.928 84.7521C269.598 84.7521 265.278 80.421 265.278 75.0783C265.278 69.7356 269.598 65.4045 274.928 65.4045C280.257 65.4045 284.578 69.7356 284.578 75.0783C284.578 80.421 280.257 84.7521 274.928 84.7521Z" fill="#DCDCDC"/>
<path d="M27.9577 152.287C22.6284 152.287 18.308 147.956 18.308 142.613C18.308 137.271 22.6284 132.94 27.9577 132.94C33.2871 132.94 37.6074 137.271 37.6074 142.613C37.6074 147.956 33.2871 152.287 27.9577 152.287Z" fill="#DCDCDC"/>
<g style="mix-blend-mode:multiply">
<path d="M102.282 81.5999C101.668 80.8609 100.87 80.2983 99.9688 79.9695C100.187 80.1417 100.387 80.336 100.565 80.5492C103.312 83.9006 104.179 88.357 99.2098 90.0599C96.9551 90.8194 94.5603 91.0669 92.1985 90.7845L92.3972 92.5961C95.3353 93.0559 98.3434 92.6467 101.053 91.4186C105.534 89.2991 104.794 84.9151 102.282 81.5999Z" fill="#CDCFD0"/>
</g>
<path d="M91.801 79.589C91.801 79.589 97.2221 78.8282 99.481 80.5673C97.0334 80.134 94.5264 80.1647 92.0901 80.6579L91.801 79.589Z" fill="#F48F9C"/>
<g style="mix-blend-mode:multiply" opacity="0.5">
<path d="M90.9334 79.3535C91.9996 88.8642 90.9334 90.4222 90.9334 90.4222C90.9715 90.6 91.0197 90.7754 91.078 90.9475C91.5659 92.3062 92.4333 92.5055 92.4333 92.5055C92.7237 88.0705 92.2343 83.6188 90.9876 79.3535H90.9334Z" fill="#CDCFD0"/>
</g>
<path d="M227.854 119.842H175.341L175.269 87.1795L227.8 87.0708L227.854 119.842Z" fill="#E0C398"/>
<path d="M230.44 75.9686L230.467 87.3633L172.587 87.5051L172.56 76.1104L230.44 75.9686Z" fill="#CCAD83"/>
<path d="M186.129 145.313L190.791 145.24L217.951 121.563L213.289 121.617L186.129 145.313Z" fill="#414042"/>
<path d="M173.624 119.86H230.474V122.161H173.624V119.86Z" fill="#414042"/>
<path d="M70.7125 190.276C57.898 190.276 47.5099 179.862 47.5099 167.015C47.5099 154.169 57.898 143.755 70.7125 143.755C83.5269 143.755 93.915 154.169 93.915 167.015C93.915 179.862 83.5269 190.276 70.7125 190.276Z" fill="#231F20"/>
<path d="M70.7126 181.997C62.4591 181.997 55.7683 175.289 55.7683 167.015C55.7683 158.741 62.4591 152.034 70.7126 152.034C78.9662 152.034 85.657 158.741 85.657 167.015C85.657 175.289 78.9662 181.997 70.7126 181.997Z" fill="#8F9194"/>
<path d="M70.7126 179.515C63.8264 179.515 58.2439 173.919 58.2439 167.015C58.2439 160.112 63.8264 154.515 70.7126 154.515C77.5989 154.515 83.1813 160.112 83.1813 167.015C83.1813 173.919 77.5989 179.515 70.7126 179.515Z" fill="#58595B"/>
<path d="M70.7125 173.138C67.3392 173.138 64.6046 170.397 64.6046 167.015C64.6046 163.634 67.3392 160.892 70.7125 160.892C74.0857 160.892 76.8203 163.634 76.8203 167.015C76.8203 170.397 74.0857 173.138 70.7125 173.138Z" fill="#6D6E71"/>
<path d="M70.6765 164.914C70.4548 165.318 70.3839 165.788 70.4767 166.239C70.5694 166.691 70.8196 167.094 71.1824 167.378C71.5563 167.644 72.0123 167.768 72.4691 167.728C72.9259 167.688 73.3537 167.487 73.6762 167.16L88.1326 151.762C88.2816 151.61 88.3958 151.428 88.4675 151.228C88.5391 151.027 88.5664 150.814 88.5475 150.602C88.5286 150.39 88.4639 150.184 88.358 150C88.252 149.816 88.1073 149.656 87.9338 149.534L83.5066 146.218C83.3392 146.087 83.1454 145.994 82.9385 145.946C82.7317 145.897 82.5167 145.894 82.3087 145.937C82.1006 145.98 81.9044 146.068 81.7337 146.195C81.5629 146.322 81.4218 146.484 81.32 146.671L70.6765 164.914Z" fill="#D6D6D7"/>
<g style="mix-blend-mode:multiply" opacity="0.5">
<path d="M83.5246 146.237L87.9519 149.552C88.1253 149.675 88.2701 149.834 88.376 150.018C88.482 150.203 88.5467 150.408 88.5656 150.62C88.5845 150.832 88.5572 151.045 88.4855 151.246C88.4139 151.446 88.2996 151.628 88.1507 151.78L86.1087 153.954C86.1087 153.954 84.4101 149.008 80.4165 152.142C76.4229 155.276 73.1883 163.229 73.0437 164.66C72.8991 166.091 75.2664 165.584 75.2664 165.584L73.6943 167.269C73.3718 167.596 72.944 167.797 72.4872 167.837C72.0304 167.877 71.5744 167.752 71.2005 167.486C70.8377 167.203 70.5875 166.8 70.4948 166.348C70.402 165.896 70.4729 165.427 70.6945 165.023L81.32 146.617C81.4278 146.433 81.5744 146.275 81.7496 146.153C81.9248 146.032 82.1243 145.95 82.3342 145.914C82.5441 145.877 82.7594 145.888 82.965 145.943C83.1706 145.999 83.3616 146.099 83.5246 146.237Z" fill="#D6D6D7"/>
</g>
<path d="M100.113 170.167H86.452C86.452 170.167 77.76 151.635 48.2147 151.635C48.2147 151.635 51.5216 132.269 76.3867 138.103C101.252 143.936 100.113 170.167 100.113 170.167Z" fill="#C11B4F"/>
<path d="M200.712 161.309H210.633V167.287H200.712V161.309Z" fill="#414042"/>
<path d="M174.293 190.276C161.479 190.276 151.09 179.862 151.09 167.015C151.09 154.169 161.479 143.755 174.293 143.755C187.107 143.755 197.496 154.169 197.496 167.015C197.496 179.862 187.107 190.276 174.293 190.276Z" fill="#231F20"/>
<path d="M174.293 181.997C166.039 181.997 159.348 175.289 159.348 167.015C159.348 158.741 166.039 152.034 174.293 152.034C182.546 152.034 189.237 158.741 189.237 167.015C189.237 175.289 182.546 181.997 174.293 181.997Z" fill="#8F9194"/>
<path d="M174.293 179.515C167.407 179.515 161.824 173.919 161.824 167.015C161.824 160.112 167.407 154.515 174.293 154.515C181.179 154.515 186.762 160.112 186.762 167.015C186.762 173.919 181.179 179.515 174.293 179.515Z" fill="#58595B"/>
<path d="M174.293 173.138C170.92 173.138 168.185 170.397 168.185 167.015C168.185 163.634 170.92 160.892 174.293 160.892C177.666 160.892 180.401 163.634 180.401 167.015C180.401 170.397 177.666 173.138 174.293 173.138Z" fill="#6D6E71"/>
<path d="M100.113 83.2124C102.222 83.3541 104.247 84.0956 105.95 85.3501C107.14 86.3216 108.213 87.428 109.149 88.6471C109.544 89.9366 109.643 91.2992 109.438 92.6325C108.221 95.9028 106.797 99.0917 105.173 102.179L101.071 98.0854L101.848 92.6507C101.975 91.8022 101.838 90.9353 101.457 90.1673C101.075 89.3994 100.467 88.7675 99.7159 88.3572L100.113 83.2124Z" fill="#820024"/>
<path d="M123.605 170.022L126.876 174.443C127.324 174.985 127.897 175.411 128.545 175.682C129.194 175.953 129.898 176.063 130.598 176.001H148.904C151.176 175.984 153.422 175.522 155.518 174.642C157.357 173.418 159.526 172.786 161.734 172.83H172.016C172.016 172.83 174.6 173.356 177.13 170.095C178.462 168.296 179.669 166.407 180.744 164.443H159.439C159.439 164.443 146.428 170.801 123.605 170.022Z" fill="#2D2D2D"/>
<path d="M90.8251 79.0637C90.5013 79.0735 90.1832 79.1514 89.8913 79.2922C89.5995 79.4331 89.3404 79.6338 89.1309 79.8815C88.9214 80.1291 88.766 80.4181 88.675 80.7297C88.584 81.0413 88.5592 81.3687 88.6024 81.6905C88.619 84.8011 88.9459 87.9022 89.5782 90.9476C90.0661 92.3063 92.3791 92.5056 92.3791 92.5056C92.6797 87.9675 92.1531 83.4125 90.8251 79.0637Z" fill="#FFF797"/>
<path d="M90.8251 79.0637C91.5118 79.0637 99.7519 78.2848 102.264 81.5999C104.776 84.9151 105.589 89.2991 101.017 91.3462C98.3073 92.5743 95.2992 92.9835 92.3611 92.5237L90.8251 79.0637Z" fill="#ED1849"/>
<path d="M173.371 170.53H157.632L159.132 169.552H174.275L173.371 170.53Z" fill="#58595B"/>
<path d="M175.178 168.519H160.686L161.951 167.686H175.955L175.178 168.519Z" fill="#58595B"/>
<path d="M187.972 121.944C187.972 121.944 170.281 122.831 161.445 120.839C152.608 118.846 143.139 117.723 141.296 121.291C139.453 124.86 137.393 130.856 138.622 131.962C140.551 133.093 142.768 133.634 145.001 133.519H191.008C191.008 133.519 192.291 133.737 193.321 130.186C194.351 126.636 196.194 120.839 187.972 121.944Z" fill="#231F20"/>
<path d="M110.648 92.6685C109.012 92.6685 107.685 91.3384 107.685 89.6975C107.685 88.0567 109.012 86.7266 110.648 86.7266C112.285 86.7266 113.612 88.0567 113.612 89.6975C113.612 91.3384 112.285 92.6685 110.648 92.6685Z" fill="#231F20"/>
<path d="M100.113 92.8678C100.113 92.8678 121.111 89.7519 116.503 123.664C113.034 149.135 107.468 156.979 113.214 158.736C118.961 160.494 140.194 158.736 140.194 158.736C140.915 158.584 141.598 158.29 142.205 157.87C142.811 157.45 143.328 156.913 143.725 156.291C144.122 155.668 144.391 154.973 144.517 154.245C144.643 153.517 144.623 152.772 144.458 152.052C143.681 146.4 138.857 138.809 138.278 131.599H190.05C190.05 131.599 206.73 142.994 206.874 170.167H194.839C194.023 170.197 193.21 170.051 192.456 169.739C191.701 169.426 191.023 168.954 190.466 168.356C188.37 166.309 187.683 165.566 187.683 165.566H163.957C163.122 165.481 162.279 165.573 161.483 165.835C160.686 166.097 159.953 166.524 159.331 167.088C156.656 169.08 154.198 172.522 150.892 172.522H113.937C111.733 172.486 109.562 171.984 107.566 171.047C105.57 170.11 103.793 168.761 102.354 167.088C97.4208 161.309 93.3188 151.707 89.9938 146.653C86.6688 141.599 80.6513 139.226 74.9953 138.32C74.9953 138.32 78.6094 127.904 85.1509 125.422C91.6925 122.94 97.981 105.784 100.113 92.8678Z" fill="#ED1849"/>
<path d="M151.325 163.102C151.867 161.87 154.108 156.327 152.355 151.436C150.368 146.001 150.368 140.983 160.595 140.983C170.823 140.983 185.334 143.592 191.026 151.436C195.941 158.211 196.827 162.305 196.971 163.392C196.971 163.392 196.682 158.754 190.809 150.403C184.936 142.052 169.992 139.262 159.439 139.262C148.886 139.262 148.886 144.515 150.928 150.403C152.97 156.291 149.753 163.084 149.753 163.084L151.325 163.102Z" fill="#AB0634"/>
<g style="mix-blend-mode:multiply">
<path d="M113.377 107.668C112.799 119.951 105.426 149.171 106.98 154.226C108.534 159.28 110.486 159.878 117.66 160.856C124.834 161.834 138.875 160.856 141.459 158.175C141.051 158.38 140.62 158.538 140.176 158.646C140.176 158.646 119.015 160.457 113.197 158.646C107.378 156.834 113.016 149.063 116.485 123.574C121.093 89.7338 100.095 92.7773 100.095 92.7773L99.9689 93.52C99.9689 93.52 113.955 95.4041 113.377 107.668Z" fill="#CDCFD0"/>
</g>
<path d="M126.135 153.682C126.135 153.682 125.846 157.305 125.593 158.628C125.593 158.628 114.751 159.515 112.13 158.628C109.51 157.74 109.908 156.128 111.859 155.005C114.193 154.072 116.614 153.38 119.087 152.939C121.416 153.358 123.771 153.607 126.135 153.682Z" fill="#231F20"/>
<path d="M130.002 155.059C130.002 155.059 129.713 158.682 129.46 160.005C129.46 160.005 118.618 160.892 115.998 160.005C113.377 159.117 113.775 157.505 115.726 156.382C118.06 155.45 120.482 154.758 122.955 154.316C125.283 154.736 127.638 154.984 130.002 155.059Z" fill="#414042"/>
<path d="M172.287 106.509C172.287 106.509 175.901 121.563 164.21 123.809C152.518 126.056 139.869 120.947 139.634 123.429C139.399 125.911 126.117 153.755 126.117 153.755C124.625 154.32 123.032 154.562 121.44 154.465C119.848 154.368 118.295 153.935 116.883 153.193C116.883 153.193 127.852 118.194 129.026 115.458C130.201 112.723 138.062 107.868 143.157 109.172C148.253 110.476 153.548 111.98 172.287 106.509Z" fill="#1E5159"/>
<path d="M172.721 106.509C172.721 106.509 175.901 121.563 164.228 123.81C152.554 126.056 139.869 120.947 139.634 123.429C139.399 125.911 130.418 155.059 130.418 155.059C126.993 156.172 123.277 155.972 119.991 154.497C119.991 154.497 127.797 118.266 129.026 115.458C130.255 112.65 138.061 107.868 143.157 109.172C148.253 110.476 153.223 108.375 172.721 106.509Z" fill="#2E6A75"/>
<g style="mix-blend-mode:multiply" opacity="0.5">
<g style="mix-blend-mode:multiply" opacity="0.5">
<path d="M124.599 155.675C123.003 155.578 121.439 155.179 119.991 154.498C119.991 154.498 127.02 122.505 128.538 116.98C128.538 116.98 120.732 152.849 121.31 153.791C121.705 154.31 122.199 154.744 122.764 155.067C123.329 155.391 123.953 155.598 124.599 155.675Z" fill="#2E6A75"/>
</g>
</g>
<path d="M115.654 82.9224C115.654 82.9224 110.034 82.1072 107.233 84.5347C106.239 85.2597 105.555 86.3357 105.32 87.5459C105.086 88.7561 105.317 90.0105 105.968 91.0563C106.836 91.8172 107.775 91.8715 108.281 91.2375C108.787 90.6034 108.028 90.3679 108.281 88.9187C108.534 87.4694 109.962 86.0383 110.902 87.1071C111.573 87.7295 112.361 88.2105 113.221 88.5217C114.081 88.8328 114.994 88.9678 115.907 88.9187L115.654 82.9224Z" fill="#F4BD98"/>
<path d="M174.745 105.277C174.745 105.277 156.024 115.965 139.869 107.741C139.869 107.741 134.158 71.8899 151.289 63.6835C151.289 63.6835 157.776 60.9481 160.704 61.1473C163.631 61.3466 176.389 77.8681 174.745 105.277Z" fill="#EE3124"/>
<path d="M160.74 62.6872C160.74 62.6872 155.518 66.6727 151.307 64.9336V57.2163H160.668L160.74 62.6872Z" fill="#F4BD98"/>
<g style="mix-blend-mode:multiply" opacity="0.5">
<path d="M160.668 57.2163V60.2416C157.605 61.1108 154.451 61.6214 151.271 61.7633V57.2163H160.668Z" fill="#F4BD98"/>
</g>
<path d="M128.647 34.8073C131.881 26.0937 133.327 13.6482 150.711 15.2786C163.36 16.4561 173.66 25.5502 173.66 38.2311C173.686 44.0218 171.528 49.6084 167.618 53.8708C163.708 58.1333 158.336 60.7566 152.577 61.2149C146.819 61.6733 141.101 59.9327 136.569 56.3422C132.037 52.7516 129.027 47.5765 128.141 41.8543C126.756 42.0749 125.339 41.9694 124.003 41.5463C122.756 40.5318 127.852 35.0609 128.647 34.8073Z" fill="#F4BD98"/>
<path d="M170.354 50.1149C170.354 50.1149 170.806 42.2527 164.806 44.2091C158.066 46.383 152.392 38.394 152.392 38.394L152.97 43.1947C152.97 43.1947 135.351 35.568 130.526 29.9702C125.701 24.3725 133.128 16.9089 136.49 16.5284C139.851 16.148 156.837 11.5829 166.649 22.5066C176.462 33.4303 176.01 40.3686 170.354 50.1149Z" fill="#572700"/>
<path d="M149.301 36.0029C149.301 36.0029 136.995 27.5972 130.454 19.1372C130.454 19.1372 110.341 16.1481 110.341 17.8872C110.341 19.6263 126.063 35.713 149.301 36.0029Z" fill="#AB0634"/>
<g style="mix-blend-mode:multiply" opacity="0.5">
<path d="M110.341 17.887C112.347 20.7492 118.166 25.5137 130.508 29.952C142.85 34.3903 139.363 29.2636 139.363 29.2636L139.652 28.4846C144.711 32.8505 149.301 35.9845 149.301 35.9845C126.063 35.7128 110.341 19.6261 110.341 17.887Z" fill="#AB0634"/>
</g>
<path d="M173.227 45.5134C173.227 45.5134 141.676 38.0498 130.454 19.137C130.454 19.137 135.134 0.71337 160.848 8.43064C186.563 16.1479 173.227 45.5134 173.227 45.5134Z" fill="#EE3124"/>
<path d="M116.558 92.5055C137.863 95.3315 140.32 95.567 142.272 95.8931C145.633 96.4728 152.139 88.3027 156.186 83.6832C160.234 79.0637 161.608 73.7739 159.331 71.8355C157.68 70.0059 155.466 68.7817 153.042 68.3573C149.681 68.1399 146.754 71.4551 145.416 74.3898C144.079 77.3246 139.182 85.1143 139.182 85.1143L115.401 82.2158C115.401 82.2158 115.076 89.8968 116.558 92.5055Z" fill="#FBB034"/>
<path d="M215.783 150.748H263.309C264.157 150.748 264.845 151.437 264.845 152.287V152.577C264.845 153.428 264.157 154.117 263.309 154.117H215.783C214.935 154.117 214.247 153.428 214.247 152.577V152.287C214.247 151.437 214.935 150.748 215.783 150.748Z" fill="white"/>
<path d="M213.759 142.758H251.436C252.284 142.758 252.972 143.448 252.972 144.298V144.588C252.972 145.438 252.284 146.128 251.436 146.128H213.759C212.911 146.128 212.223 145.438 212.223 144.588V144.298C212.223 143.448 212.911 142.758 213.759 142.758Z" fill="white"/>
<path d="M210.416 134.57H244.569C245.418 134.57 246.105 135.259 246.105 136.11V136.4C246.105 137.25 245.418 137.94 244.569 137.94H210.416C209.568 137.94 208.88 137.25 208.88 136.4V136.11C208.88 135.259 209.568 134.57 210.416 134.57Z" fill="white"/>
<path d="M105.679 191.852H153.205C154.053 191.852 154.741 192.541 154.741 193.392V193.681C154.741 194.532 154.053 195.221 153.205 195.221H105.679C104.831 195.221 104.143 194.532 104.143 193.681V193.392C104.143 192.541 104.831 191.852 105.679 191.852Z" fill="white"/>
<path d="M103.673 183.863H141.35C142.199 183.863 142.886 184.552 142.886 185.403V185.692C142.886 186.543 142.199 187.232 141.35 187.232H103.673C102.825 187.232 102.137 186.543 102.137 185.692V185.403C102.137 184.552 102.825 183.863 103.673 183.863Z" fill="white"/>
<path d="M84.7353 66.4733C71.0426 66.4733 59.9425 55.3455 59.9425 41.6186C59.9425 27.8917 71.0426 16.7639 84.7353 16.7639C98.428 16.7639 109.528 27.8917 109.528 41.6186C109.528 55.3455 98.428 66.4733 84.7353 66.4733Z" fill="white"/>
<path d="M84.7353 13.485C90.2919 13.4706 95.7277 15.1103 100.354 18.1961C104.98 21.282 108.588 25.6751 110.721 30.8188C112.854 35.9625 113.416 41.6252 112.335 47.0893C111.255 52.5535 108.581 57.5731 104.651 61.512C100.722 65.4509 95.7153 68.1318 90.2647 69.2151C84.8142 70.2983 79.1656 69.7351 74.0347 67.5967C68.9038 65.4584 64.5216 61.8412 61.4435 57.2035C58.3653 52.5659 56.7298 47.1166 56.744 41.5461C56.7631 34.1097 59.7183 26.9834 64.9636 21.725C70.2088 16.4667 77.3174 13.5041 84.7353 13.485ZM84.7353 66.4733C89.6358 66.4733 94.4264 65.0174 98.5019 62.2895C102.578 59.5616 105.755 55.6841 107.634 51.1467C109.513 46.6093 110.008 41.6156 109.057 36.7963C108.106 31.9769 105.752 27.5481 102.292 24.0693C98.8318 20.5904 94.4209 18.2175 89.6163 17.2503C84.8118 16.2831 79.8291 16.765 75.2975 18.6351C70.766 20.5052 66.8889 23.6796 64.156 27.7574C61.423 31.8352 59.9568 36.6334 59.9425 41.5461C59.933 44.8162 60.5673 48.056 61.809 51.0799C63.0507 54.1037 64.8754 56.8523 67.1786 59.1679C69.4817 61.4836 72.2181 63.3208 75.2308 64.5744C78.2435 65.828 81.4734 66.4733 84.7353 66.4733Z" fill="#79BDE8"/>
<path d="M84.6449 44.9155C82.8684 44.9155 81.4283 43.4718 81.4283 41.6909C81.4283 39.91 82.8684 38.4663 84.6449 38.4663C86.4213 38.4663 87.8615 39.91 87.8615 41.6909C87.8615 43.4718 86.4213 44.9155 84.6449 44.9155Z" fill="#5A87C6"/>
<path d="M84.4281 21.7458H84.6269C85.3654 21.7458 85.9641 22.346 85.9641 23.0864V39.8796C85.9641 40.62 85.3654 41.2202 84.6269 41.2202H84.4281C83.6896 41.2202 83.0909 40.62 83.0909 39.8796V23.0864C83.0909 22.346 83.6896 21.7458 84.4281 21.7458Z" fill="#5A87C6"/>
<path d="M84.8979 43.1041C85.1639 42.8929 85.3399 42.5883 85.3902 42.252C85.4406 41.9156 85.3615 41.5726 85.169 41.2925L85.0425 41.1295C84.8319 40.8628 84.528 40.6864 84.1924 40.6359C83.8569 40.5855 83.5148 40.6648 83.2354 40.8577L71.1281 49.9156C70.8621 50.1267 70.6861 50.4313 70.6358 50.7677C70.5855 51.1041 70.6645 51.4471 70.857 51.7271L70.9835 51.8902C71.1942 52.1568 71.498 52.3333 71.8335 52.3837C72.1691 52.4342 72.5112 52.3549 72.7906 52.1619L84.8979 43.1041Z" fill="#5A87C6"/>
</svg>
