<svg width="20" height="20" viewBox="0 0 20 20" fill="none" xmlns="http://www.w3.org/2000/svg">
<g filter="url(#filter0_d)">
<circle cx="10" cy="11" r="8" fill="white"/>
</g>
<path d="M16.2096 6.64099L15.57 7.27484C17.2178 9.73842 17.0193 13.0076 15.025 15.2651C14.25 14.497 14.5367 14.7811 13.7648 14.0161C12.2462 15.824 9.66278 16.2799 7.62753 15.1496L6.97852 15.7928C9.09253 17.0886 11.8398 16.9043 13.7679 15.2651C14.543 16.0332 14.2563 15.7491 15.0281 16.514C17.9046 13.9787 18.3898 9.73842 16.2096 6.64099Z" fill="#EC1C24"/>
<path d="M14.3981 5.9446C13.623 6.71272 13.9097 6.42858 13.1378 7.19357C14.9652 8.70481 15.4188 11.2652 14.2783 13.2791L14.9273 13.9224C16.238 11.821 16.0458 9.09824 14.3949 7.19357C15.1668 6.42858 14.8801 6.71272 15.6551 5.9446C13.0969 3.09697 8.8216 2.60987 5.69312 4.7737L6.33267 5.40755C8.8216 3.77141 12.1234 3.97124 14.3981 5.9446Z" fill="#FF7F22"/>
<path d="M5.62072 15.8895C6.39575 15.1214 6.10905 15.4055 6.88093 14.6405C5.05677 13.1324 4.59994 10.572 5.74044 8.55496L5.09143 7.91174C3.7808 10.0131 3.97298 12.7327 5.62387 14.6405C4.85198 15.4055 5.13553 15.1245 4.36365 15.8895C6.92504 18.7403 11.1972 19.2242 14.3257 17.0635L13.6861 16.4297C11.1846 18.0721 7.88595 17.8535 5.62072 15.8895Z" fill="#37B34A"/>
<path d="M4.99365 6.56912C5.38431 6.9563 5.8632 7.4309 6.25386 7.81808C7.77557 6.00708 10.3622 5.55746 12.3943 6.68777L13.0433 6.04455C10.923 4.74563 8.17884 4.9361 6.25386 6.57224C5.47883 5.80413 5.76553 6.08827 4.99365 5.32328C2.12036 7.85555 1.62887 12.0958 3.80905 15.1963L4.44861 14.5625C2.80087 12.0989 2.99936 8.82662 4.99365 6.56912Z" fill="#1B75BB"/>
<path fill-rule="evenodd" clip-rule="evenodd" d="M10.0156 14.9817C12.2776 14.9817 14.1113 13.1643 14.1113 10.9225C14.1113 8.68074 12.2776 6.8634 10.0156 6.8634C7.75363 6.8634 5.91992 8.68074 5.91992 10.9225C5.91992 13.1643 7.75363 14.9817 10.0156 14.9817ZM10.0156 14.0448C11.7556 14.0448 13.1661 12.6469 13.1661 10.9224C13.1661 9.19795 11.7556 7.8 10.0156 7.8C8.27558 7.8 6.86503 9.19795 6.86503 10.9224C6.86503 12.6469 8.27558 14.0448 10.0156 14.0448Z" fill="#253646"/>
<path d="M11.7976 10.072C11.7976 10.284 11.7476 10.484 11.6476 10.672C11.5476 10.86 11.3876 11.014 11.1676 11.134C10.9476 11.25 10.6656 11.308 10.3216 11.308H9.56564V13H8.88164V8.83H10.3216C10.6416 8.83 10.9116 8.886 11.1316 8.998C11.3556 9.106 11.5216 9.254 11.6296 9.442C11.7416 9.63 11.7976 9.84 11.7976 10.072ZM10.3216 10.75C10.5816 10.75 10.7756 10.692 10.9036 10.576C11.0316 10.456 11.0956 10.288 11.0956 10.072C11.0956 9.616 10.8376 9.388 10.3216 9.388H9.56564V10.75H10.3216Z" fill="#253646"/>
<defs>
<filter id="filter0_d" x="0" y="0" width="20" height="20" filterUnits="userSpaceOnUse" color-interpolation-filters="sRGB">
<feFlood flood-opacity="0" result="BackgroundImageFix"/>
<feColorMatrix in="SourceAlpha" type="matrix" values="0 0 0 0 0 0 0 0 0 0 0 0 0 0 0 0 0 0 127 0"/>
<feOffset dy="-1"/>
<feGaussianBlur stdDeviation="1"/>
<feColorMatrix type="matrix" values="0 0 0 0 0 0 0 0 0 0 0 0 0 0 0 0 0 0 0.05 0"/>
<feBlend mode="normal" in2="BackgroundImageFix" result="effect1_dropShadow"/>
<feBlend mode="normal" in="SourceGraphic" in2="effect1_dropShadow" result="shape"/>
</filter>
</defs>
</svg>
